<svg xmlns="http://www.w3.org/2000/svg">
<defs>
<font id="Zolina-Regular" horiz-adv-x="0" >
  <font-face 
    font-family="Zolina"
    font-weight="400"
    font-stretch="normal"
    units-per-em="1000"
    panose-1="2 2 10 3 6 3 3 6 4 3"
    ascent="800"
    descent="-200"
    x-height="578"
    cap-height="702"
    bbox="-454 -317 1167 998"
    underline-thickness="14"
    underline-position="-100"
    unicode-range="U+0020-25CA"
  />
<missing-glyph horiz-adv-x="483" 
d="M362 328q-56 -2 -104 15.5t-48 52.5q0 22 22.5 36t49.5 14q31 0 52.5 -15.5t21.5 -37.5q0 -15 -12.5 -25.5t-36.5 -10.5t-37 11.5t-13 25.5q0 13 10 20t22 7q24 0 24 -13v-2q0 -4 -2.5 -6t-5.5 -2q2 0 2 3q0 2 -2.5 4t-5.5 2q-8 0 -8 -9q0 -10 15 -10q8 0 14.5 4.5
t6.5 12.5q0 12 -12 19t-28 7q-17 0 -29 -9t-12 -25q0 -32 36 -49t83 -16zM142 85.5q-28 14.5 -28 41.5q0 35 41.5 54.5t98.5 19.5h18q-4 7 -4 17q0 17 8.5 36.5t21.5 42.5q2 5 6 13t2 8q-3 0 -14.5 -16.5t-23.5 -41t-18 -50.5l-14 1q-19 0 -28 -3q16 32 44 82q14 24 13 24
q-4 0 -27.5 -31t-47.5 -76q-31 -6 -56.5 -19.5t-36.5 -25.5l-2 3q77 65 122 141q-32 -44 -86 -91t-84 -47q-13 0 -20 9.5t-7 28.5q0 16 5 35t14 35q21 40 55 70t59 30q29 0 46 -8.5t17 -20.5q0 -9 -8.5 -17.5t-23.5 -14.5l-30 5q32 32 32 44q0 4 -5 4q-17 0 -45 -32.5
t-50 -73.5t-22 -60q0 -12 10 -12q20 0 66 39.5t75 81.5q8 12 22 12q6 0 9.5 -2.5t1.5 -5.5q-3 -7 -8.5 -16t-10.5 -19q13 16 24 28t16 12q8 0 12 -1t3 -4l-10 -20q21 27 32 27q8 0 23.5 -4.5t12.5 -10.5q-21 -40 -32 -65.5t-7 -43.5q53 -10 53 -25q0 -5 -2.5 -9.5t-6.5 -4.5
q-15 0 -33 6.5t-30 19.5q3 -1 7.5 -2t9.5 -3q5 -6 17 -10.5t22.5 -6t10.5 1.5t-15.5 10t-38 12.5t-45.5 5.5q-47 0 -71 -20t-24 -46q0 -21 16.5 -34t40.5 -13q19 0 31 7.5t12 21.5q0 8 -6.5 13.5t-19.5 5.5q-8 0 -12 -3t-4 -7t3.5 -6.5t8.5 -2.5q4 0 4 3q0 5 -6 5q2 3 6 3
q5 0 9 -3t4 -8q0 -6 -6.5 -10t-18.5 -4q-19 0 -31.5 9.5t-12.5 25.5t13.5 28t37.5 12t42.5 -12.5t18.5 -34.5q0 -25 -23.5 -38.5t-57.5 -13.5q-36 0 -64 14.5zM329 207.5q-10 8.5 -7 24.5q6 27 24 59t42.5 54t49.5 22q10 0 17.5 -3.5t7.5 -6.5q0 -10 -17.5 -20t-36.5 -13

<glyph glyph-name="d_l" unicode="dl" horiz-adv-x="844" 
d="M140 20.5q-52 35.5 -84 102t-32 155.5q0 101 36.5 172.5t99.5 108t141 36.5q73 0 149 -32v29q0 53 27 105t81.5 93.5t132.5 64.5v-62q-56 2 -85.5 -9t-42.5 -40t-13 -86v-658h-100v156h-2q-28 -84 -81.5 -127.5t-116.5 -43.5q-58 0 -110 35.5zM795 0h-100v702h100v-702z
M354.5 60.5q35.5 23.5 61.5 67t34 99.5v312q-58 29 -116 29q-60 0 -107.5 -32.5t-75 -97t-27.5 -155.5q0 -78 22 -133.5t58 -84t77 -28.5q38 0 73.5 23.5z" />
    <glyph glyph-name="f_l" unicode="fl" horiz-adv-x="530" 
d="M95 0v557h-109v21h109q-15 39 -15 76q0 57 28 101.5t75.5 69t105.5 24.5q68 0 111 -33t62 -83t19 -105v-628h-100v702q0 61 -32.5 95.5t-76.5 34.5q-29 0 -55 -16.5t-42 -48.5t-16 -76q0 -55 34 -113h131v-21h-129v-557h-100z" />
    <glyph glyph-name="q_j" unicode="qj" horiz-adv-x="895" 
d="M757.5 656.5q-16.5 16.5 -16.5 39.5t16.5 39.5t39.5 16.5t39 -16.5t16 -39.5t-16 -39.5t-39 -16.5t-39.5 16.5zM462 -209l-1 295q-45 -47 -100.5 -75t-110.5 -28q-64 0 -115.5 39.5t-81 109.5t-29.5 159q0 147 96 225t273 78q71 0 169 -16v-770q17 -15 39.5 -23t45.5 -7
q47 5 75 39t28 93v668h100v-597q0 -72 -31.5 -125t-86 -80.5t-121.5 -27.5q-76 0 -149 43zM379.5 45q43.5 23 81.5 67v454q-38 6 -73 6q-117 0 -190.5 -66.5t-73.5 -214.5q0 -89 22.5 -149.5t61 -90t86.5 -29.5q42 0 85.5 23z" />
    <glyph glyph-name=".notdef" horiz-adv-x="483" 
d="M362 328q-56 -2 -104 15.5t-48 52.5q0 22 22.5 36t49.5 14q31 0 52.5 -15.5t21.5 -37.5q0 -15 -12.5 -25.5t-36.5 -10.5t-37 11.5t-13 25.5q0 13 10 20t22 7q24 0 24 -13v-2q0 -4 -2.5 -6t-5.5 -2q2 0 2 3q0 2 -2.5 4t-5.5 2q-8 0 -8 -9q0 -10 15 -10q8 0 14.5 4.5
t6.5 12.5q0 12 -12 19t-28 7q-17 0 -29 -9t-12 -25q0 -32 36 -49t83 -16zM142 85.5q-28 14.5 -28 41.5q0 35 41.5 54.5t98.5 19.5h18q-4 7 -4 17q0 17 8.5 36.5t21.5 42.5q2 5 6 13t2 8q-3 0 -14.5 -16.5t-23.5 -41t-18 -50.5l-14 1q-19 0 -28 -3q16 32 44 82q14 24 13 24
q-4 0 -27.5 -31t-47.5 -76q-31 -6 -56.5 -19.5t-36.5 -25.5l-2 3q77 65 122 141q-32 -44 -86 -91t-84 -47q-13 0 -20 9.5t-7 28.5q0 16 5 35t14 35q21 40 55 70t59 30q29 0 46 -8.5t17 -20.5q0 -9 -8.5 -17.5t-23.5 -14.5l-30 5q32 32 32 44q0 4 -5 4q-17 0 -45 -32.5
t-50 -73.5t-22 -60q0 -12 10 -12q20 0 66 39.5t75 81.5q8 12 22 12q6 0 9.5 -2.5t1.5 -5.5q-3 -7 -8.5 -16t-10.5 -19q13 16 24 28t16 12q8 0 12 -1t3 -4l-10 -20q21 27 32 27q8 0 23.5 -4.5t12.5 -10.5q-21 -40 -32 -65.5t-7 -43.5q53 -10 53 -25q0 -5 -2.5 -9.5t-6.5 -4.5
q-15 0 -33 6.5t-30 19.5q3 -1 7.5 -2t9.5 -3q5 -6 17 -10.5t22.5 -6t10.5 1.5t-15.5 10t-38 12.5t-45.5 5.5q-47 0 -71 -20t-24 -46q0 -21 16.5 -34t40.5 -13q19 0 31 7.5t12 21.5q0 8 -6.5 13.5t-19.5 5.5q-8 0 -12 -3t-4 -7t3.5 -6.5t8.5 -2.5q4 0 4 3q0 5 -6 5q2 3 6 3
q5 0 9 -3t4 -8q0 -6 -6.5 -10t-18.5 -4q-19 0 -31.5 9.5t-12.5 25.5t13.5 28t37.5 12t42.5 -12.5t18.5 -34.5q0 -25 -23.5 -38.5t-57.5 -13.5q-36 0 -64 14.5zM329 207.5q-10 8.5 -7 24.5q6 27 24 59t42.5 54t49.5 22q10 0 17.5 -3.5t7.5 -6.5q0 -10 -17.5 -20t-36.5 -13
q-19 -27 -33.5 -58.5t-14.5 -47.5q0 -10 7 -10q14 0 28 10.5t20 22.5h17q-8 -14 -32 -28t-45 -14q-17 0 -27 8.5zM444.5 341.5q11.5 6.5 14.5 12.5t-4 6q-8 0 -18.5 -7.5t-20.5 -20.5q17 3 28.5 9.5z" />
    <glyph glyph-name=".null" 
 />
    <glyph glyph-name="nonmarkingreturn" horiz-adv-x="333" 
 />
    <glyph glyph-name="space" unicode=" " horiz-adv-x="281" 
 />
    <glyph glyph-name="exclam" unicode="!" horiz-adv-x="171" 
d="M74 171q0 110 -6.5 184t-17.5 153q-7 47 -10.5 80.5t-3.5 70.5q0 26 15 40.5t35 14.5t35 -14.5t15 -40.5q0 -36 -3.5 -67t-11.5 -84q-12 -78 -19 -152.5t-7 -184.5h-21zM48.5 -1.5q-15.5 15.5 -15.5 38.5q0 22 15.5 37.5t37.5 15.5t37.5 -15.5t15.5 -37.5t-15.5 -38
t-37.5 -16t-37.5 15.5z" />
    <glyph glyph-name="quotedbl" unicode="&#x22;" horiz-adv-x="261" 
d="M54 590h-21v211h80zM170 590h-22v211h81z" />
    <glyph glyph-name="numbersign" unicode="#" horiz-adv-x="650" 
d="M618 389v-24h-190l-31 -78h184v-25h-193l-82 -209h-24l81 209h-125l-82 -209h-24l81 209h-180v25h190l30 78h-183v24h192l80 205h25l-80 -205h125l80 205h25l-80 -205h181zM247 287h126l30 78h-125z" />
    <glyph glyph-name="dollar" unicode="$" horiz-adv-x="617" 
d="M321 -14v-52h-21v51q-15 -1 -46 -1q-94 0 -224 18v100q54 -37 129 -62.5t141 -28.5v321l-42 20q-79 38 -125 64.5t-77.5 62.5t-31.5 81q0 82 76 120t200 40v49h21v-49q98 0 221 -22v-100q-43 33 -102 57t-119 35v-259q80 -36 131.5 -66t87.5 -71.5t39 -94.5
q10 -192 -258 -213zM129 542q26 -28 66 -50.5t105 -51.5v253q-26 3 -49 3q-67 0 -107.5 -22t-40.5 -70q0 -34 26 -62zM321 11q80 2 130 32.5t50 92.5q0 58 -47 100.5t-133 85.5v-311z" />
    <glyph glyph-name="percent" unicode="%" horiz-adv-x="778" 
d="M199 -67h-22l414 835h22zM82 416.5q-38 52.5 -38 131.5q0 80 38 131.5t127 51.5t127 -51.5t38 -131.5q0 -79 -38.5 -131.5t-126.5 -52.5q-89 0 -127 52.5zM324 548q0 87 -29.5 127.5t-85.5 40.5t-85.5 -40.5t-29.5 -127.5q0 -173 115 -173t115 173zM464.5 30
q-38.5 53 -38.5 132q0 80 38 131.5t127 51.5t127 -51.5t38 -131.5q0 -79 -38 -132t-127 -53q-88 0 -126.5 53zM706 162q0 87 -29.5 127.5t-85.5 40.5t-85.5 -40.5t-29.5 -127.5q0 -173 115 -173t115 173z" />
    <glyph glyph-name="ampersand" unicode="&#x26;" horiz-adv-x="708" 
d="M629.5 225q-25.5 -63 -71.5 -114l88 -111h-109l-43 54q-45 -34 -98 -52t-109 -18q-83 0 -141 25.5t-86.5 68t-28.5 93.5q0 67 53 126.5t150 86.5l-22 27q-57 70 -57 138q0 48 29 86.5t77 59.5t102 21q81 0 132.5 -42t51.5 -122q0 -9 -2 -31h-79q3 17 3 35q0 63 -36 101.5
t-91 38.5q-45 0 -77.5 -30t-32.5 -79q0 -65 57 -136l247 -312q45 79 45 174q0 60 -19 120h78q15 -39 15 -79q0 -66 -25.5 -129zM394.5 15q47.5 19 86.5 55l-237 301q-63 -31 -96 -86t-33 -116q0 -76 48.5 -124.5t131.5 -48.5q52 0 99.5 19z" />
    <glyph glyph-name="quotesingle" unicode="'" horiz-adv-x="145" 
d="M54 590h-21v211h80z" />
    <glyph glyph-name="parenleft" unicode="(" horiz-adv-x="357" 
d="M324 -123q-153 0 -222 128.5t-69 319.5q0 119 27.5 217.5t91 160t164.5 61.5v-21q-45 0 -85 -41t-66 -134.5t-26 -242.5q0 -150 27 -245.5t69 -138.5t89 -43v-21z" />
    <glyph glyph-name="parenright" unicode=")" horiz-adv-x="357" 
d="M33 -102q47 0 89 43t69 138.5t27 245.5q0 149 -26 242.5t-66 134.5t-85 41v21q101 0 164.5 -61.5t91 -160t27.5 -217.5q0 -191 -69 -319.5t-222 -128.5v21z" />
    <glyph glyph-name="asterisk" unicode="*" horiz-adv-x="309" 
d="M164 588h113v-14h-102l69 -69l-10 -10l-72 72v-108h-14v113l-77 -77l-10 10l69 69h-98v14h109l-80 80l10 10l77 -77v103h14v-98l72 72l10 -10z" />
    <glyph glyph-name="plus" unicode="+" horiz-adv-x="432" 
d="M227 320h173v-21h-173v-173h-22v173h-172v21h172v173h22v-173z" />
    <glyph glyph-name="comma" unicode="," horiz-adv-x="201" 
d="M54 -129h-21l56 211h80z" />
    <glyph glyph-name="hyphen" unicode="-" horiz-adv-x="285" 
d="M253 292h-220v22h220v-22z" />
    <glyph glyph-name="period" unicode="." horiz-adv-x="173" 
d="M48.5 -1.5q-15.5 15.5 -15.5 38.5t15 38.5t38 15.5t38.5 -15.5t15.5 -38.5t-15.5 -38.5t-38.5 -15.5q-22 0 -37.5 15.5z" />
    <glyph glyph-name="slash" unicode="/" horiz-adv-x="351" 
d="M58 -144h-25l260 916h25z" />
    <glyph glyph-name="zero" unicode="0" horiz-adv-x="725" 
d="M109.5 88q-76.5 105 -76.5 264t76 262.5t254 103.5q177 0 253.5 -103.5t76.5 -262.5q0 -158 -76.5 -263.5t-253.5 -105.5t-253.5 105zM593 352q0 174 -58.5 254.5t-171.5 80.5q-114 0 -172 -80t-58 -255q0 -346 230 -346t230 346z" />
    <glyph glyph-name="one" unicode="1" horiz-adv-x="277" 
d="M244 0h-100v640l-111 -65v25l196 102h15v-702z" />
    <glyph glyph-name="two" unicode="2" horiz-adv-x="666" 
d="M33 42q0 104 56.5 175.5t134 113.5t195.5 88q69 27 108.5 45.5t64.5 41.5t25 51q0 119 -152 119q-83 0 -195.5 -34.5t-198.5 -78.5v106q170 52 306 52q116 0 186 -41.5t70 -133.5q0 -68 -41.5 -117.5t-101.5 -82t-159 -73.5q-91 -38 -145 -66t-90.5 -69t-36.5 -97v-18
h161q211 0 397 78v-100l-584 -1v42z" />
    <glyph glyph-name="three" unicode="3" horiz-adv-x="609" 
d="M33 15v100q62 -42 128.5 -64.5t121.5 -22.5q69 0 120.5 22t78.5 59t27 81q0 70 -67.5 127t-199.5 79l213 219h-397v87h483v-31l-207 -217q121 -21 181.5 -80.5t60.5 -135.5q0 -71 -42.5 -129t-120.5 -91.5t-179 -33.5q-98 0 -201 31z" />
    <glyph glyph-name="four" unicode="4" horiz-adv-x="648" 
d="M543 0h-100v198h-410v35l470 469h40v-464h73v-40h-73v-198zM443 613l-376 -375h376v375z" />
    <glyph glyph-name="five" unicode="5" horiz-adv-x="656" 
d="M33 4v102q76 -44 150 -66t139 -22q104 0 164.5 50t60.5 151q0 92 -76 144.5t-205 52.5q-93 0 -199 -30l69 316h481l2 -81h-476l-49 -182q115 44 229 44q86 0 154 -26t107 -76.5t39 -121.5q0 -147 -102 -211t-270 -64q-98 0 -218 20z" />
    <glyph glyph-name="six" unicode="6" horiz-adv-x="717" 
d="M190 31q-78 47 -117.5 126.5t-39.5 177.5q0 108 46.5 193.5t133 134t201.5 48.5q94 0 186 -39v-89q-51 48 -107.5 74t-109.5 26q-76 0 -132 -45t-85 -120.5t-27 -164.5q19 64 60.5 108t94.5 65t107 21q83 0 147.5 -36t100.5 -97.5t36 -135.5q0 -84 -40 -151t-110 -105
t-156 -38q-111 0 -189 47zM489.5 39.5q44.5 32.5 70 92t25.5 138.5q0 72 -25 129t-68.5 88.5t-97.5 31.5q-62 0 -117 -33.5t-90 -98.5t-39 -155q22 -101 85.5 -163t154.5 -62q57 0 101.5 32.5z" />
    <glyph glyph-name="seven" unicode="7" horiz-adv-x="556" 
d="M121 0q0 178 57 307.5t139 206.5t169 117h-453v71h491v-73q-62 -25 -129 -92.5t-117.5 -201t-50.5 -335.5h-106z" />
    <glyph glyph-name="eight" unicode="8" horiz-adv-x="676" 
d="M114 36q-81 53 -81 150q0 87 68.5 133.5t162.5 58.5q-81 0 -133 43.5t-52 118.5q0 80 63.5 129t201.5 49q131 0 197.5 -50t66.5 -128q0 -48 -29 -85t-72 -57t-83 -20q92 -11 156 -57.5t64 -134.5q0 -98 -76 -150.5t-224 -52.5q-149 0 -230 53zM468.5 432
q38.5 44 38.5 112q0 55 -32 104t-131 49q-80 0 -117 -27t-44.5 -57.5t-7.5 -68.5q0 -69 39.5 -112.5t129.5 -43.5q86 0 124.5 44zM470.5 38.5q44.5 34.5 59 75.5t14.5 70q0 50 -13.5 88t-57.5 65t-129 27q-92 0 -138.5 -26.5t-60 -65t-13.5 -88.5q0 -30 14 -70.5t61.5 -75
t136.5 -34.5q82 0 126.5 34.5z" />
    <glyph glyph-name="nine" unicode="9" horiz-adv-x="717" 
d="M527 661q78 -47 118 -126.5t40 -176.5q0 -108 -47 -194t-133.5 -134.5t-201.5 -48.5q-94 0 -186 39v89q51 -48 107.5 -74t109.5 -26q77 0 132.5 45t84.5 120.5t27 164.5q-19 -64 -60 -108t-94 -65t-108 -21q-83 0 -147.5 36t-100 97.5t-35.5 135.5q0 84 39.5 151
t109.5 105t156 38q111 0 189 -47zM228 652.5q-45 -32.5 -70.5 -92t-25.5 -138.5q0 -72 25 -129t68.5 -88.5t97.5 -31.5q62 0 117 33.5t90 98.5t39 155q-22 101 -85 163t-154 62q-57 0 -102 -32.5z" />
    <glyph glyph-name="colon" unicode=":" horiz-adv-x="173" 
d="M48.5 -1.5q-15.5 15.5 -15.5 38.5t15 38.5t38 15.5t38.5 -15.5t15.5 -38.5t-15.5 -38.5t-38.5 -15.5q-22 0 -37.5 15.5zM48.5 307.5q-15.5 15.5 -15.5 38.5t15 38.5t38 15.5t38.5 -15.5t15.5 -38.5t-15.5 -38.5t-38.5 -15.5q-22 0 -37.5 15.5z" />
    <glyph glyph-name="semicolon" unicode=";" horiz-adv-x="220" 
d="M85.5 307.5q-15.5 15.5 -15.5 38.5t15 38.5t38 15.5t38.5 -15.5t15.5 -38.5t-15.5 -38.5t-38.5 -15.5q-22 0 -37.5 15.5zM64 -129h-21l56 211h80z" />
    <glyph glyph-name="less" unicode="&#x3c;" horiz-adv-x="395" 
d="M33 324l330 216v-21l-299 -197l299 -201v-21l-330 220v4z" />
    <glyph glyph-name="equal" unicode="=" horiz-adv-x="432" 
d="M400 246h-367v21h367v-21zM400 347h-367v21h367v-21z" />
    <glyph glyph-name="greater" unicode="&#x3e;" horiz-adv-x="395" 
d="M33 519v21l330 -216v-4l-330 -220v21l299 201z" />
    <glyph glyph-name="question" unicode="?" horiz-adv-x="567" 
d="M228 210q-1 7 -1 20q0 43 22 74t67 72q43 39 67.5 69.5t33.5 74.5q14 31 14 60q0 50 -37 83t-100 33q-48 0 -89.5 -18t-66.5 -51t-25 -77q0 -40 9.5 -69.5t29.5 -55.5l-18 -5q-44 27 -72.5 65t-28.5 85q0 44 31 78t87.5 52.5t129.5 18.5q66 0 124 -18t94 -53.5t36 -85.5
q0 -45 -21.5 -79t-52 -57.5t-81.5 -53.5q-48 -29 -74.5 -49t-43.5 -48t-13 -65h-21zM185.5 -1.5q-15.5 15.5 -15.5 38.5t15.5 38.5t38.5 15.5t38.5 -15.5t15.5 -38.5q0 -22 -15.5 -38t-38.5 -16t-38.5 15.5z" />
    <glyph glyph-name="at" unicode="@" horiz-adv-x="933" 
d="M275.5 -7q-110.5 45 -176.5 134t-66 215q0 106 63 192.5t169 135.5t228 49q124 0 212 -36t133.5 -101.5t45.5 -151.5q0 -80 -41.5 -149t-107.5 -109.5t-133 -40.5q-42 0 -68 21t-26 60q0 17 5 32h-5q-28 -40 -64 -61t-70 -21q-50 0 -80 34.5t-30 86.5q0 70 38 126
t106.5 88t156.5 32q55 0 114 -14q-73 -171 -98 -285q-5 -23 -5 -37q0 -41 41 -41q32 0 70.5 34.5t66 100t27.5 152.5q0 77 -35.5 135.5t-99 90t-146.5 31.5q-93 0 -179 -43t-140 -127t-54 -201q0 -109 47 -188.5t129 -121t184 -41.5q96 0 198 38t189 110v-87
q-77 -40 -172.5 -63.5t-184.5 -23.5q-131 0 -241.5 45zM475.5 237q34.5 30 53.5 82l71 183q-24 4 -38 4q-52 0 -99.5 -22t-79.5 -63t-38 -96q-3 -16 -3 -33q0 -37 16.5 -61t50.5 -24q32 0 66.5 30z" />
    <glyph glyph-name="A" unicode="A" horiz-adv-x="615" 
d="M4 0h-21l262 660l-16 42h95l277 -702h-97l-117 299h-264zM256 632l-124 -312h246z" />
    <glyph glyph-name="B" unicode="B" horiz-adv-x="594" 
d="M36 0v702h279q70 0 117 -24.5t69.5 -64.5t22.5 -86q0 -56 -31 -103t-81 -60v-5q78 -8 119 -53.5t41 -114.5q0 -46 -26 -90t-79 -72.5t-129 -28.5h-302zM294 370q43 0 74 21.5t47 56t16 74.5q0 41 -18 77.5t-54 59t-87 22.5h-136v-311h158zM284 21q59 0 101.5 24.5
t64.5 63.5t22 82q0 68 -45.5 112.5t-118.5 44.5h-172v-327h148z" />
    <glyph glyph-name="C" unicode="C" horiz-adv-x="655" 
d="M252 20q-98 38 -159.5 123.5t-61.5 218.5q0 118 52.5 199t141 121.5t196.5 40.5q111 0 220 -41v-91q-61 52 -124.5 79.5t-122.5 27.5q-76 0 -136 -43t-93.5 -120.5t-33.5 -177.5q0 -120 40 -197.5t105.5 -112.5t145.5 -35q57 0 114 22.5t105 65.5v-100q-78 -18 -178 -18
q-113 0 -211 38z" />
    <glyph glyph-name="D" unicode="D" horiz-adv-x="651" 
d="M36 0v702h276q144 0 226 -85.5t82 -252.5q0 -124 -46 -205.5t-120 -120t-160 -38.5h-258zM203 21q101 -1 170.5 29t108 106t38.5 208q0 118 -33.5 187.5t-101.5 99.5t-176 29l-73 8v-678z" />
    <glyph glyph-name="E" unicode="E" horiz-adv-x="585" 
d="M36 0v702h510v-100q-76 45 -146 61.5t-146 17.5h-118v-275h351v-22h-351v-363h115q93 1 178.5 21t131.5 58v-100h-525z" />
    <glyph glyph-name="F" unicode="F" horiz-adv-x="535" 
d="M36 0v702h476v-100q-79 37 -178 57.5t-198 21.5v-275h258v-22h-258v-384h-100z" />
    <glyph glyph-name="G" unicode="G" horiz-adv-x="701" 
d="M221 25.5q-87 37.5 -138.5 119.5t-51.5 208q0 193 118 283t305 90q104 0 207 -24v-129q-63 60 -132 91.5t-133 31.5q-77 0 -136.5 -38.5t-94 -117t-34.5 -192.5q0 -102 40.5 -177t109.5 -114.5t151 -39.5q75 0 139 33v124q0 65 -8.5 106.5t-35.5 86.5h136v-336
q-129 -43 -245 -43q-110 0 -197 37.5z" />
    <glyph glyph-name="H" unicode="H" horiz-adv-x="623" 
d="M136 0h-100v702h100v-302h352v302h100v-702h-100v378h-352v-378z" />
    <glyph glyph-name="I" unicode="I" horiz-adv-x="171" 
d="M136 0h-100v702h100v-702z" />
    <glyph glyph-name="J" unicode="J" horiz-adv-x="476" 
d="M18 92q129 -84 210 -84q52 0 80 36.5t28 114.5v543h100v-511q0 -209 -250 -209q-71 0 -168 18v92z" />
    <glyph glyph-name="K" unicode="K" horiz-adv-x="654" 
d="M36 0v702h100v-458l214 228q62 66 90 114t54 116h100l-196 -206l232 -496h-100l-200 424l-194 -204v-220h-100z" />
    <glyph glyph-name="L" unicode="L" horiz-adv-x="493" 
d="M36 0v702h100v-681h87q143 0 264 79v-100h-451z" />
    <glyph glyph-name="M" unicode="M" horiz-adv-x="719" 
d="M76 0h-18l-1 702h84l226 -652l214 652h86v-702h-100l1 594l-196 -594h-87l-209 605v-605z" />
    <glyph glyph-name="N" unicode="N" horiz-adv-x="605" 
d="M69 0h-21v664l-24 38h118l409 -643v643h21v-702h-98l-405 629v-629z" />
    <glyph glyph-name="O" unicode="O" horiz-adv-x="715" 
d="M183 33q-74 49 -113 132t-39 182q0 90 36 175.5t109.5 140.5t181.5 55q107 0 181 -55t110 -140.5t36 -175.5q0 -99 -39 -182t-113 -132t-175 -49t-175 49zM488 57.5q51 52.5 74 131t23 158.5q0 78 -23.5 158.5t-74.5 136t-129 55.5q-84 0 -134.5 -55t-71.5 -134.5
t-21 -160.5q0 -79 24.5 -158t76 -131.5t126.5 -52.5q79 0 130 52.5z" />
    <glyph glyph-name="P" unicode="P" horiz-adv-x="588" 
d="M36 0v702h307q66 0 112 -27.5t69.5 -72.5t23.5 -96q0 -58 -31.5 -104.5t-81.5 -72.5t-105 -29h-194v-300h-100zM284 322q54 0 92.5 25.5t58 67.5t19.5 89q0 46 -19 86.5t-56 65.5t-89 25h-154v-359h148z" />
    <glyph glyph-name="Q" unicode="Q" horiz-adv-x="715" 
d="M662 -164q-22 -2 -33 -2q-82 0 -150 38.5t-108 111.5q-109 0 -186 49t-115.5 131.5t-38.5 182.5q0 90 36 175.5t109.5 140.5t181.5 55q107 0 181 -55t110 -140.5t36 -175.5t-32.5 -167.5t-94.5 -128.5t-147 -63q37 -31 84 -46.5t94 -15.5q42 0 73 10v-100zM488 57.5
q51 52.5 74 131t23 158.5q0 78 -23.5 158.5t-74.5 136t-129 55.5q-84 0 -134.5 -55t-71.5 -134.5t-21 -160.5q0 -79 24.5 -158t76 -131.5t126.5 -52.5q79 0 130 52.5z" />
    <glyph glyph-name="R" unicode="R" horiz-adv-x="603" 
d="M36 0v702h307q66 0 112 -27.5t69.5 -72.5t23.5 -96q0 -47 -20 -90.5t-60 -72.5t-97 -36l198 -307h-114l-181 300h-138v-300h-100zM285 322q54 0 92 26t57.5 67.5t19.5 88.5q0 46 -19 86.5t-56 65.5t-90 25h-153v-359h149z" />
    <glyph glyph-name="S" unicode="S" horiz-adv-x="600" 
d="M30 2v100q57 -39 136.5 -65t146.5 -26q82 0 135 31t53 94q0 48 -33 85.5t-80 65t-128 65.5q-78 36 -125 63t-79 63t-32 82q0 85 81 122.5t211 37.5q101 0 226 -22v-100q-58 44 -139.5 71t-151.5 27q-67 0 -107.5 -22t-40.5 -70q0 -35 27.5 -63.5t69.5 -51t112 -54.5
q85 -39 137 -68t89.5 -71.5t40.5 -96.5q6 -116 -83.5 -165.5t-241.5 -49.5q-94 0 -224 18z" />
    <glyph glyph-name="T" unicode="T" horiz-adv-x="574" 
d="M232 0v681h-48q-34 0 -93 -22t-108 -57v100h598v-100q-37 38 -88.5 58.5t-113.5 20.5h-47v-681h-100z" />
    <glyph glyph-name="U" unicode="U" horiz-adv-x="631" 
d="M171 20q-63 35 -99 105t-36 170v407h101v-489q0 -108 51.5 -157.5t126.5 -49.5q74 0 124.5 49.5t50.5 157.5v489h100v-407q0 -101 -35.5 -170.5t-97.5 -104.5t-142 -35q-81 0 -144 35z" />
    <glyph glyph-name="V" unicode="V" horiz-adv-x="572" 
d="M334 0h-94l-259 702h100l245 -662l228 662h21z" />
    <glyph glyph-name="W" unicode="W" horiz-adv-x="932" 
d="M321 0h-94l-246 702h100l232 -661l133 387l-91 274h100l231 -663l228 663h22l-241 -702h-96l-142 395z" />
    <glyph glyph-name="X" unicode="X" horiz-adv-x="551" 
d="M-64 0l297 336l-273 366h100l239 -319l78 87q52 57 76.5 98.5t30 62t14.5 71.5h117l-305 -335l274 -367h-100l-239 319l-76 -86q-55 -61 -79 -117t-37 -116h-117z" />
    <glyph glyph-name="Y" unicode="Y" horiz-adv-x="445" 
d="M154 0v310l-224 392h100l216 -371l66 107q43 70 57 121t19 109q2 22 4 34h100l-238 -392v-310h-100z" />
    <glyph glyph-name="Z" unicode="Z" horiz-adv-x="661" 
d="M15 0l492 681h-180q-81 0 -138.5 -15.5t-132.5 -46.5q-26 -12 -40 -17v100h612l-488 -681h232q92 0 158 21.5t118 56.5v-99h-633z" />
    <glyph glyph-name="bracketleft" unicode="[" horiz-adv-x="281" 
d="M249 -141h-216v911h216v-18h-116v-875h116v-18z" />
    <glyph glyph-name="backslash" unicode="\" horiz-adv-x="351" 
d="M58 772l260 -916h-25l-260 916h25z" />
    <glyph glyph-name="bracketright" unicode="]" horiz-adv-x="281" 
d="M249 770v-911h-216v18h116v875h-116v18h216z" />
    <glyph glyph-name="asciicircum" unicode="^" horiz-adv-x="505" 
d="M257 675l216 -330h-22l-197 300l-200 -300h-21l220 330h4z" />
    <glyph glyph-name="underscore" unicode="_" horiz-adv-x="445" 
d="M413 -29h-380v21h380v-21z" />
    <glyph glyph-name="a" unicode="a" horiz-adv-x="590" 
d="M572 0h-100l-46 107q-24 -49 -80 -86.5t-125 -37.5q-51 0 -92.5 20.5t-65.5 58t-24 86.5q0 63 41.5 125t131.5 105t227 47v59q-1 79 -76 79q-49 0 -116 -29t-130 -67v100q136 28 219 28q200 0 203 -148v-38h-80q-97 -1 -170.5 -34t-113.5 -89t-40 -126q0 -66 37 -105
t93 -39q47 0 89 30.5t65 78.5l-62 145h98z" />
    <glyph glyph-name="b" unicode="b" horiz-adv-x="606" 
d="M236.5 12.5q-48.5 27.5 -85.5 78.5v-91h-100v592q0 53 26.5 104.5t81 93.5t132.5 65v-62q-55 2 -84.5 -9t-42.5 -40t-13 -86v-242h3q42 90 97.5 134.5t117.5 44.5q56 0 105 -34.5t78.5 -100t29.5 -153.5q0 -92 -33.5 -165.5t-89.5 -115t-120 -41.5q-54 0 -102.5 27.5z
M398.5 52.5q39.5 38.5 61.5 105.5t22 149t-19 138t-51 83.5t-72 27.5q-52 0 -104 -54t-85 -152v-234q41 -52 81.5 -77t77.5 -25q49 0 88.5 38.5z" />
    <glyph glyph-name="c" unicode="c" horiz-adv-x="550" 
d="M198.5 26.5q-82.5 37.5 -128.5 109t-46 170.5q0 97 43 161.5t117.5 95t169.5 30.5q83 0 180 -25v-96q-54 51 -106.5 74.5t-99.5 23.5q-93 0 -147.5 -71.5t-54.5 -200.5q0 -138 55.5 -206t161.5 -68q80 0 186 60v-80q-73 -15 -141 -15q-107 0 -189.5 37.5z" />
    <glyph glyph-name="d" unicode="d" horiz-adv-x="584" 
d="M140 20.5q-52 35.5 -84 102t-32 155.5q0 101 36.5 172.5t99.5 108t141 36.5q73 0 149 -32v29q0 53 27 105t81.5 93.5t132.5 64.5v-62q-56 2 -85.5 -9t-42.5 -40t-13 -86v-658h-100v156h-2q-28 -84 -81.5 -127.5t-116.5 -43.5q-58 0 -110 35.5zM354.5 60.5
q35.5 23.5 61.5 67t34 99.5v312q-58 29 -116 29q-60 0 -107.5 -32.5t-75 -97t-27.5 -155.5q0 -78 22 -133.5t58 -84t77 -28.5q38 0 73.5 23.5z" />
    <glyph glyph-name="e" unicode="e" horiz-adv-x="615" 
d="M166 127.5q34 -57.5 88.5 -88t119.5 -30.5q106 0 208 76v-85q-91 -22 -177 -22q-105 0 -191 34t-138 107.5t-52 185.5q0 92 41.5 157.5t114.5 98.5t165 33q77 0 131 -22.5t80.5 -61t26.5 -84.5q0 -52 -38.5 -93t-108 -64t-159.5 -23q-73 0 -152 16q7 -77 41 -134.5z
M225.5 534q-49.5 -38 -76 -101t-26.5 -134v-19q64 -8 111 -8q121 0 188.5 44t67.5 121q0 55 -34.5 95t-114.5 40q-66 0 -115.5 -38z" />
    <glyph glyph-name="f" unicode="f" horiz-adv-x="333" 
d="M95 0v557h-109v21h109q-18 41 -18 78q0 49 26 91t77 67t123 25q69 0 148 -24v-95q-61 41 -118.5 65.5t-95.5 24.5q-49 0 -76.5 -29.5t-27.5 -73.5q0 -26 18 -62.5t42 -66.5h131v-21h-129v-557h-100z" />
    <glyph glyph-name="g" unicode="g" horiz-adv-x="600" 
d="M590 -67q0 -64 -40 -109t-104.5 -67.5t-137.5 -22.5q-75 0 -137 25t-98.5 71.5t-36.5 106.5q0 25 8 57h101q-17 -35 -17 -75q0 -46 23 -85t64.5 -62t94.5 -23q48 0 89.5 18t67.5 54t26 86q0 57 -30.5 87.5t-72.5 41t-106 16.5q-64 7 -93.5 17t-29.5 39q0 18 13.5 30.5
t38.5 19.5q-87 19 -138 73t-51 140q0 72 36 122.5t99.5 76t144.5 25.5h8q39 51 91.5 75t104.5 24q54 0 91 -21l-13 -74q-16 17 -53 30.5t-78 13.5q-74 0 -123 -49q113 -6 181.5 -64t68.5 -159q0 -107 -77 -164.5t-201 -57.5h-20q-40 -2 -64 -14t-24 -26q0 -13 17 -17.5
t52 -4.5l77 1q248 0 248 -155zM145 263q25 -47 67 -72.5t92 -25.5t91.5 25.5t66.5 72.5t25 108q0 59 -25 106t-67 74t-91 27q-50 0 -92 -27t-67 -74t-25 -106q0 -61 25 -108z" />
    <glyph glyph-name="h" unicode="h" horiz-adv-x="614" 
d="M521.5 558q42.5 -37 42.5 -112v-446h-100l3 442q1 60 -26.5 89.5t-73.5 29.5q-53 0 -114.5 -35.5t-101.5 -90.5v-435h-100v702h100v-237q47 58 120 94t140 36q68 0 110.5 -37z" />
    <glyph glyph-name="i" unicode="i" horiz-adv-x="203" 
d="M67 656.5q-16 16.5 -16 39.5t16 39.5t39 16.5t39.5 -16.5t16.5 -39.5t-16.5 -39.5t-39.5 -16.5t-39 16.5zM156 0h-100v578h100v-578z" />
    <glyph glyph-name="j" unicode="j" horiz-adv-x="204" 
d="M67 656.5q-16 16.5 -16 39.5t16 39.5t39 16.5t39.5 -16.5t16.5 -39.5t-16.5 -39.5t-39.5 -16.5t-39 16.5zM-260 -206l32 89q50 -48 100 -72t92 -24q44 0 70 27t26 74v690h100v-597q0 -113 -64 -171.5t-170 -58.5q-88 0 -186 43z" />
    <glyph glyph-name="k" unicode="k" horiz-adv-x="526" 
d="M51 592q0 53 26.5 104.5t81 93.5t132.5 65v-62q-55 2 -84.5 -9t-42.5 -40t-13 -86v-356l101 87q39 33 86 91t66 98h96l-171 -147l210 -431h-100l-184 369l-104 -89v-280h-100v592z" />
    <glyph glyph-name="l" unicode="l" horiz-adv-x="213" 
d="M163 0h-100v676q0 51 -13.5 78.5t-42.5 38.5t-80 11v59q116 -38 176 -113t60 -158v-592z" />
    <glyph glyph-name="m" unicode="m" horiz-adv-x="1024" 
d="M51 0v578h100v-177q53 94 127.5 144t145.5 50t111 -45t40 -132q52 86 124 131.5t140 45.5q65 0 107.5 -42t42.5 -117v-436h-100v450q0 50 -25 76t-66 26q-36 0 -77.5 -20.5t-80.5 -60t-65 -92.5v-379h-100v424q0 63 -26 95t-68 32q-37 0 -79.5 -23t-82 -65.5t-68.5 -99.5
v-363h-100z" />
    <glyph glyph-name="n" unicode="n" horiz-adv-x="619" 
d="M486.5 576.5q35.5 -15.5 58.5 -48.5t23 -82v-446h-100v421q0 60 -33 90.5t-78 30.5q-50 0 -107.5 -39t-98.5 -98v-405h-100v578h100v-141q46 66 120 110.5t142 44.5q38 0 73.5 -15.5z" />
    <glyph glyph-name="o" unicode="o" horiz-adv-x="607" 
d="M159.5 17.5q-63.5 34.5 -99.5 103t-36 166.5q0 99 36 168.5t99.5 104.5t144.5 35t144 -35t98.5 -104.5t35.5 -168.5q0 -98 -35.5 -166.5t-98.5 -103t-144 -34.5t-144.5 34.5zM395.5 40.5q41.5 35.5 66.5 99.5t25 147q0 81 -25 146t-67 102t-91 37q-50 0 -92 -37t-67 -102
t-25 -146q0 -83 25 -147t67 -99.5t92 -35.5t91.5 35.5z" />
    <glyph glyph-name="p" unicode="p" horiz-adv-x="608" 
d="M478.5 559.5q47.5 -32.5 76.5 -92.5t29 -140q0 -105 -39.5 -182.5t-103.5 -118t-135 -40.5q-42 0 -82 15t-73 45v-215h-100v747h100v-139q45 77 103.5 115t120.5 38q56 0 103.5 -32.5zM383 57q46 33 73.5 95t27.5 146q0 77 -20 132.5t-54 83.5t-76 28q-47 0 -95 -36
t-88 -107v-320q31 -27 65 -41t68 -14q53 0 99 33z" />
    <glyph glyph-name="q" unicode="q" horiz-adv-x="610" 
d="M703 -285q-121 35 -181 107.5t-60 155.5l-1 108q-45 -47 -100.5 -75t-110.5 -28q-64 0 -115.5 39.5t-81 109.5t-29.5 159q0 147 96 225t273 78q71 0 169 -16v-666q0 -51 8.5 -79.5t28 -40.5t54.5 -12q12 0 50 4v-69zM379.5 45q43.5 23 81.5 67v454q-38 6 -73 6
q-117 0 -190.5 -66.5t-73.5 -214.5q0 -89 22.5 -149.5t61 -90t86.5 -29.5q42 0 85.5 23z" />
    <glyph glyph-name="r" unicode="r" horiz-adv-x="493" 
d="M51 0v578h100v-177q92 194 240 194q40 0 91 -17v-100q-79 45 -146 45q-58 0 -104.5 -41.5t-80.5 -119.5v-362h-100z" />
    <glyph glyph-name="s" unicode="s" horiz-adv-x="535" 
d="M25 100q76 -43 150.5 -65t135.5 -22q63 0 100 24t37 69q0 34 -26.5 62t-65.5 49t-105 51q-72 32 -115.5 56t-73.5 57t-30 75q0 71 71 106t186 35q99 0 205 -23v-100q-51 41 -128 66.5t-145 25.5q-53 0 -85.5 -18t-32.5 -54q0 -26 22 -47.5t55 -38.5t93 -43
q79 -34 127 -60t82.5 -65.5t34.5 -92.5q0 -88 -78.5 -128.5t-200.5 -40.5q-99 0 -213 26v96z" />
    <glyph glyph-name="t" unicode="t" horiz-adv-x="442" 
d="M121.5 35q-55.5 52 -55.5 142v335q0 27 -12.5 37.5t-47.5 13.5v15q74 0 108.5 59.5t34.5 164.5h16l1 -224h140v-21h-140v-446q0 -48 26 -77t71 -29q27 0 57 19.5t56.5 58t41.5 91.5l47 -55q-12 -42 -44 -73t-73.5 -47t-81.5 -16q-89 0 -144.5 52z" />
    <glyph glyph-name="u" unicode="u" horiz-adv-x="575" 
d="M436 578h100v-578h-100v85q-35 -45 -91.5 -72t-113.5 -27q-52 0 -95.5 23.5t-70 72t-26.5 121.5v375h100v-398q0 -85 33 -124.5t87 -39.5q45 0 95 26.5t82 65.5v470z" />
    <glyph glyph-name="v" unicode="v" horiz-adv-x="519" 
d="M286 47l204 531h21l-223 -578h-86l-222 578h100z" />
    <glyph glyph-name="w" unicode="w" horiz-adv-x="917" 
d="M252 0h-49l-223 578h99l188 -482l184 482h42l196 -505l192 505h28l-224 -578h-68l-182 474z" />
    <glyph glyph-name="x" unicode="x" horiz-adv-x="566" 
d="M-33 0l273 277l-242 301h107l204 -253l53 53q68 69 97.5 114t34.5 86h94l-266 -271l245 -307h-104l-212 264l-55 -57q-73 -73 -101 -118t-30 -89h-98z" />
    <glyph glyph-name="y" unicode="y" horiz-adv-x="519" 
d="M-82 -96q128 -59 220 -59q66 0 101.5 27.5t35.5 68.5q0 21 -8 38l-270 599h100l235 -515l107 297q24 86 24 154q0 33 -4 64h80l-207 -578l-22.5 -67.5t-81 -98.5t-155.5 -40q-78 0 -180 27z" />
    <glyph glyph-name="z" unicode="z" horiz-adv-x="529" 
d="M12 0l396 556h-89q-71 0 -160.5 -26t-127.5 -59v107h492l-395 -555h104q77 0 161.5 23.5t124.5 60.5v-107h-506z" />
    <glyph glyph-name="braceleft" unicode="{" horiz-adv-x="393" 
d="M361 -116q-78 0 -144.5 33t-108.5 109.5t-42 200.5q0 41 -6.5 64t-26.5 33q20 10 26.5 33t6.5 64q0 124 42 200.5t108.5 109.5t144.5 33v-21q-34 0 -82.5 -24.5t-87 -85t-38.5 -162.5q0 -58 -10 -96t-29 -51q39 -27 39 -143q0 -102 38.5 -163.5t87.5 -87t82 -25.5v-21z
" />
    <glyph glyph-name="bar" unicode="|" horiz-adv-x="86" 
d="M54 -66h-21v835h21v-835z" />
    <glyph glyph-name="braceright" unicode="}" horiz-adv-x="393" 
d="M33 -95q33 0 81.5 25.5t87 87t38.5 163.5q0 57 10.5 93.5t29.5 49.5q-19 13 -29.5 51t-10.5 96q0 102 -38.5 162.5t-86.5 85t-82 24.5v21q78 0 144.5 -33t108.5 -109.5t42 -200.5q0 -41 6.5 -64t26.5 -33q-20 -10 -26.5 -33t-6.5 -64q0 -124 -42 -200.5t-108.5 -109.5
t-144.5 -33v21z" />
    <glyph glyph-name="asciitilde" unicode="~" horiz-adv-x="546" 
d="M332.5 226q-41.5 19 -102.5 56q-47 29 -76 43t-51 14q-49 0 -49 -84h-21q0 49 16 84t42 53t56 18q26 0 58.5 -16t88.5 -49q52 -32 86 -48.5t60 -16.5q52 0 52 85h21q0 -70 -23.5 -114t-76.5 -44q-39 0 -80.5 19z" />
    <glyph glyph-name="exclamdown" unicode="&#xa1;" horiz-adv-x="171" 
d="M123.5 623.5q15.5 -15.5 15.5 -37.5t-15.5 -38t-37.5 -16t-37.5 15.5t-15.5 38.5q0 22 15.5 37.5t37.5 15.5t37.5 -15.5zM95 451q0 -110 7 -183.5t19 -152.5q8 -52 11.5 -84t3.5 -68q0 -26 -15 -40.5t-35 -14.5t-35 14.5t-15 40.5q0 59 14 152q11 79 17.5 153t6.5 183h21
z" />
    <glyph glyph-name="cent" unicode="&#xa2;" horiz-adv-x="583" 
d="M551 148q-36 -81 -99.5 -122.5t-137.5 -41.5q-43 0 -87 14l-39 -163h-21l41 171q-78 33 -126.5 110.5t-48.5 184.5q0 105 39.5 170.5t100 93.5t127.5 28q21 0 49 -4l31 130h21l-33 -135q19 -6 49 -20t51.5 -19.5t52.5 -2.5v-93h-14q-25 0 -42 13t-38 40q-17 22 -31 35.5
t-33 22.5l-122 -504q50 -38 107 -38q56 0 103.5 34.5t80.5 102.5zM157 173q24 -64 67 -103l119 497q-18 5 -37 5q-36 0 -75.5 -23t-68.5 -80t-29 -151q0 -81 24 -145z" />
    <glyph glyph-name="sterling" unicode="&#xa3;" horiz-adv-x="617" 
d="M70 0q30 37 42 70.5t12 80.5v142h-91v21h91v122q0 106 49 164.5t130.5 80t195.5 21.5v-100q-32 18 -77.5 33t-85.5 15q-106 0 -106 -112v-224h138v-21h-138v-157q0 -38 -24 -68.5t-67 -46.5h212q72 0 126.5 21t106.5 58v-100h-514z" />
    <glyph glyph-name="currency" unicode="&#xa4;" horiz-adv-x="480" 
d="M50 108l-17 15l55 62q-52 57 -52 135q0 38 13.5 73t37.5 62l-54 61l17 15l53 -60q60 50 135 50q39 0 74 -14t63 -39l56 63l17 -15l-57 -64q23 -27 35.5 -61t12.5 -71q0 -74 -48 -133l57 -64l-17 -15l-56 63q-59 -53 -137 -53q-77 0 -134 51zM321 175.5q38 22.5 60.5 61
t22.5 83.5t-22.5 83.5t-60.5 61t-83 22.5t-83.5 -22.5t-61 -61t-22.5 -83.5t22.5 -83.5t61 -61t83.5 -22.5t83 22.5z" />
    <glyph glyph-name="yen" unicode="&#xa5;" horiz-adv-x="628" 
d="M546 702h21l-204 -381h121v-18h-127v-82h127v-18h-127v-203h-100v203h-140v18h140v82h-140v18h134l-218 381h100l216 -371z" />
    <glyph glyph-name="brokenbar" unicode="&#xa6;" horiz-adv-x="86" 
d="M54 426h-21v343h21v-343zM54 -62h-21v342h21v-342z" />
    <glyph glyph-name="section" unicode="&#xa7;" horiz-adv-x="556" 
d="M495.5 138q28.5 -33 28.5 -80q0 -86 -75 -127t-197 -41q-102 0 -219 28v72q62 -35 131.5 -54.5t128.5 -19.5q72 0 117 27t45 77q0 35 -28 61t-69 43t-110 41q-69 23 -110.5 40.5t-70 44t-28.5 61.5q0 108 122 140q-58 20 -90 48.5t-32 72.5q0 82 67 116t161 34
q62 0 124.5 -10.5t116.5 -29.5v-89q-40 46 -112.5 78.5t-138.5 32.5q-60 0 -103.5 -20.5t-43.5 -64.5q0 -28 23 -47.5t57.5 -32t94.5 -28.5q76 -21 124 -39.5t81.5 -52t33.5 -85.5q0 -51 -29.5 -85t-77.5 -53q50 -25 78.5 -58zM133.5 310.5q23.5 -20.5 58.5 -34.5t95 -33
q59 -18 98 -33q31 11 50.5 33t19.5 54q0 34 -26.5 57t-65.5 37t-106 32l-56 15q-38 -8 -64.5 -27t-26.5 -51q0 -29 23.5 -49.5z" />
    <glyph glyph-name="copyright" unicode="&#xa9;" horiz-adv-x="781" 
d="M207 38.5q-82 48.5 -128 131t-46 181.5t46 181.5t128 131t184 48.5t184 -48.5t128 -131t46 -181.5t-46 -181.5t-128 -131t-184 -48.5t-184 48.5zM564 56.5q77 45.5 120 123.5t43 171t-43 171t-120 123.5t-173 45.5q-97 0 -174 -45.5t-120 -123.5t-43 -171t43 -171
t120 -123.5t174 -45.5q96 0 173 45.5zM320.5 180q-41.5 25 -66.5 71.5t-25 107.5q0 99 51.5 143.5t120.5 44.5q24 0 41 -4.5t35 -13.5t32 -12.5t34 -1.5v-61h-8q-17 0 -27 8.5t-24 26.5q-18 22 -34 33.5t-44 11.5q-24 0 -50 -15t-44.5 -52t-18.5 -98q0 -57 20 -100.5
t52 -67.5t68 -24t66.5 22t51.5 66l12 -5q-24 -52 -65 -78.5t-88 -26.5q-48 0 -89.5 25z" />
    <glyph glyph-name="ordfeminine" unicode="&#xaa;" horiz-adv-x="315" 
d="M320 384h-56l-25 59q-14 -27 -46 -48t-70 -21q-44 0 -73 26t-29 67q0 36 23 70.5t74 59t128 26.5l-1 32q0 45 -43 45q-47 0 -137 -54v57q81 15 123 15q112 0 113 -83l1 -21h-45q-82 -1 -132 -40.5t-50 -99.5q0 -37 20.5 -59t52.5 -22q26 0 49.5 17t36.5 44l-35 81h55z
" />
    <glyph glyph-name="guillemotleft" unicode="&#xab;" horiz-adv-x="579" 
d="M33 324l330 216v-21l-299 -197l299 -201v-21l-330 220v4zM217 324l330 216v-21l-299 -197l299 -201v-21l-330 220v4z" />
    <glyph glyph-name="uni00AD" unicode="&#xad;" horiz-adv-x="285" 
d="M253 292h-220v22h220v-22z" />
    <glyph glyph-name="registered" unicode="&#xae;" horiz-adv-x="520" 
d="M143.5 287.5q-51.5 30.5 -81 82.5t-29.5 114q0 63 29.5 115t81 82.5t116.5 30.5t117 -30.5t81.5 -82.5t29.5 -115q0 -62 -29.5 -114t-81.5 -82.5t-117 -30.5t-116.5 30.5zM366.5 305q47.5 28 74.5 75t27 102q0 57 -27 105t-74.5 76.5t-106.5 28.5q-58 0 -105.5 -28
t-74.5 -76t-27 -104t27.5 -103.5t75 -75.5t106.5 -28q57 0 104.5 28zM169 364v247h107q34 0 53 -21t19 -50q0 -23 -13.5 -42t-38.5 -24q3 -12 14 -26t14 -18q18 -22 26.5 -36t11.5 -30h-37q-4 18 -14.5 36.5t-12.5 21.5q-20 32 -24 48h-72v-106h-33zM259 477q27 0 42 19
t15 45t-15 44.5t-43 18.5h-56v-127h57z" />
    <glyph glyph-name="degree" unicode="&#xb0;" horiz-adv-x="313" 
d="M70 510.5q-37 32.5 -37 89.5t37 89t87 32t87 -32t37 -89t-37 -89.5t-87 -32.5t-87 32.5zM230 524.5q31 27.5 31 75.5t-31 75t-73 27t-73 -27t-31 -75q0 -49 30.5 -76t72.5 -27q43 0 74 27.5z" />
    <glyph glyph-name="plusminus" unicode="&#xb1;" horiz-adv-x="432" 
d="M400 51h-367v21h367v-21zM227 320h173v-21h-173v-173h-22v173h-172v21h172v173h22v-173z" />
    <glyph glyph-name="uni00B2" unicode="&#xb2;" horiz-adv-x="365" 
d="M33 371q0 52 28.5 87.5t67.5 56.5t97 44q54 22 76.5 35.5t22.5 33.5q0 60 -76 60q-42 0 -98.5 -17.5t-98.5 -39.5v53q81 26 153 26q58 0 93 -20.5t35 -66.5q0 -34 -20.5 -58.5t-50.5 -40.5t-79 -37q-46 -19 -73 -33.5t-45.5 -35t-18.5 -48.5v-9h80q106 0 199 40v-50
l-292 -1v21z" />
    <glyph glyph-name="uni00B3" unicode="&#xb3;" horiz-adv-x="346" 
d="M33 358v50q31 -21 64 -32t61 -11q51 0 82 23.5t31 57.5q0 35 -34 63.5t-100 39.5l107 110h-199v43h242v-15l-104 -109q60 -11 90.5 -40.5t30.5 -67.5q0 -36 -21 -64.5t-60 -45.5t-90 -17q-47 0 -100 15z" />
    <glyph glyph-name="paragraph" unicode="&#xb6;" horiz-adv-x="543" 
d="M295 320q-86 0 -145 28t-88 73t-29 96q0 49 24 91.5t74 68.5t124 26h181v-793h-37v768h-67v-768h-37v410z" />
    <glyph glyph-name="periodcentered" unicode="&#xb7;" horiz-adv-x="173" 
d="M48.5 220.5q-15.5 15.5 -15.5 38.5t15 38.5t38 15.5t38.5 -15.5t15.5 -38.5t-15.5 -38.5t-38.5 -15.5q-22 0 -37.5 15.5z" />
    <glyph glyph-name="uni00B9" unicode="&#xb9;" horiz-adv-x="171" 
d="M138 350h-50v320l-55 -32v12l98 51h7v-351z" />
    <glyph glyph-name="ordmasculine" unicode="&#xba;" horiz-adv-x="341" 
d="M57.5 418.5q-43.5 44.5 -43.5 127.5t43.5 128t113.5 45t113.5 -45t43.5 -128t-43.5 -127.5t-113.5 -44.5t-113.5 44.5zM222.5 407q23.5 20 37.5 56t14 83q0 45 -14 82t-37.5 57.5t-51.5 20.5t-51.5 -20.5t-37.5 -57.5t-14 -82q0 -47 14 -83t37.5 -56t51.5 -20t51.5 20z
" />
    <glyph glyph-name="guillemotright" unicode="&#xbb;" horiz-adv-x="579" 
d="M217 519v21l330 -216v-4l-330 -220v21l299 201zM33 519v21l330 -216v-4l-330 -220v21l299 201z" />
    <glyph glyph-name="onequarter" unicode="&#xbc;" horiz-adv-x="641" 
d="M138 350h-50v320l-55 -32v12l98 51h7v-351zM74 0h-21l414 702h21zM328 14v50q31 -21 64 -32t61 -11q51 0 82 23.5t31 57.5q0 35 -34 63.5t-100 39.5l107 110h-199v43h242v-15l-104 -109q60 -11 90.5 -40.5t30.5 -67.5q0 -36 -21 -64.5t-60 -45.5t-90 -17q-47 0 -100 15z
" />
    <glyph glyph-name="onehalf" unicode="&#xbd;" horiz-adv-x="660" 
d="M138 350h-50v320l-55 -32v12l98 51h7v-351zM74 0h-21l414 702h21zM328 22q0 52 28.5 87.5t67.5 56.5t97 44q54 22 76.5 35.5t22.5 33.5q0 60 -76 60q-42 0 -98.5 -17.5t-98.5 -39.5v53q81 26 153 26q58 0 93 -20.5t35 -66.5q0 -34 -20.5 -58.5t-50.5 -40.5t-79 -37
q-46 -19 -73 -33.5t-45.5 -35t-18.5 -48.5v-9h80q106 0 199 40v-50l-292 -1v21z" />
    <glyph glyph-name="threequarters" unicode="&#xbe;" horiz-adv-x="683" 
d="M33 358v50q31 -21 64 -32t61 -11q51 0 82 23.5t31 57.5q0 35 -34 63.5t-100 39.5l107 110h-199v43h242v-15l-104 -109q60 -11 90.5 -40.5t30.5 -67.5q0 -36 -21 -64.5t-60 -45.5t-90 -17q-47 0 -100 15zM201 0h-21l414 702h21zM614 0h-50v99h-205v17l235 235h20v-232h36
v-20h-36v-99zM564 306l-188 -187h188v187z" />
    <glyph glyph-name="questiondown" unicode="&#xbf;" horiz-adv-x="566" 
d="M380.5 605.5q15.5 -15.5 15.5 -38.5t-15.5 -38.5t-38.5 -15.5q-22 0 -37.5 15.5t-15.5 38.5t15.5 38.5t37.5 15.5q23 0 38.5 -15.5zM338 394q1 -7 1 -20q0 -43 -22 -74t-67 -72q-43 -39 -67.5 -69.5t-33.5 -74.5q-14 -31 -14 -60q0 -50 37 -83t100 -33q48 0 90 18
t67 51.5t25 76.5q0 40 -10 70t-30 55l18 5q44 -27 73 -65t29 -85q0 -44 -31 -78t-87.5 -52.5t-130.5 -18.5q-66 0 -124 18t-94 53.5t-36 86.5q0 45 21.5 78.5t52.5 57t81 53.5q48 29 75 49t43.5 48t12.5 65h21z" />
    <glyph glyph-name="Agrave" unicode="&#xc0;" horiz-adv-x="615" 
d="M4 0h-21l262 660l-16 42h95l277 -702h-97l-117 299h-264zM256 632l-124 -312h246zM387 778h-18l-225 194h95z" />
    <glyph glyph-name="Aacute" unicode="&#xc1;" horiz-adv-x="615" 
d="M4 0h-21l262 660l-16 42h95l277 -702h-97l-117 299h-264zM256 632l-124 -312h246zM500 972l-226 -194h-18l149 194h95z" />
    <glyph glyph-name="Acircumflex" unicode="&#xc2;" horiz-adv-x="615" 
d="M4 0h-21l262 660l-16 42h95l277 -702h-97l-117 299h-264zM256 632l-124 -312h246zM289 972l167 -182h-88l-89 162l-84 -162h-87l160 182h21z" />
    <glyph glyph-name="Atilde" unicode="&#xc3;" horiz-adv-x="615" 
d="M4 0h-21l262 660l-16 42h95l277 -702h-97l-117 299h-264zM256 632l-124 -312h246zM327 838q-26 9 -67 26q-36 15 -56.5 22t-35.5 7q-40 0 -40 -47h-10q0 50 25 73.5t53 23.5q23 0 50 -9t67 -26q38 -15 57 -21.5t33 -6.5q16 0 23 9.5t7 33.5h11q0 -50 -19.5 -72t-50.5 -22
q-21 0 -47 9z" />
    <glyph glyph-name="Adieresis" unicode="&#xc4;" horiz-adv-x="615" 
d="M4 0h-21l262 660l-16 42h95l277 -702h-97l-117 299h-264zM256 632l-124 -312h246zM189.5 835.5q-10.5 10.5 -10.5 26.5t10.5 26.5t26.5 10.5q15 0 25.5 -10.5t10.5 -26.5t-10.5 -26.5t-25.5 -10.5q-16 0 -26.5 10.5zM322 835.5q-11 10.5 -11 26.5t11 26.5t27 10.5
q15 0 25.5 -10.5t10.5 -26.5t-10.5 -26.5t-25.5 -10.5q-16 0 -27 10.5z" />
    <glyph glyph-name="Aring" unicode="&#xc5;" horiz-adv-x="615" 
d="M4 0h-21l262 660l-16 42h95l277 -702h-97l-117 299h-264zM256 632l-124 -312h246zM217.5 814.5q-24.5 24.5 -24.5 59.5t24.5 59.5t59.5 24.5t59.5 -24.5t24.5 -59.5t-24.5 -59.5t-59.5 -24.5t-59.5 24.5zM312 828q13 16 13 46t-13 46t-35 16t-35 -16t-13 -46t13 -46
t35 -16t35 16z" />
    <glyph glyph-name="AE" unicode="&#xc6;" horiz-adv-x="931" 
d="M597 21q93 1 178.5 21t131.5 58v-100h-526v295h-162l-131 -295h-105l316 702h593v-100q-76 45 -146 61.5t-147 17.5h-118v-275h352v-22h-352v-363h116zM381 659l-153 -343h153v343z" />
    <glyph glyph-name="Ccedilla" unicode="&#xc7;" horiz-adv-x="655" 
d="M258 655q-60 -43 -93.5 -120.5t-33.5 -177.5q0 -120 40 -197.5t105.5 -112.5t145.5 -35q57 0 114 22.5t105 65.5v-100q-78 -18 -178 -18q-69 0 -135 15l-14 -46h45q36 0 57.5 -17t21.5 -49q0 -66 -54 -96t-133 -30q-20 0 -30 1v10q68 -1 113 26t45 81q0 28 -12 44t-35 16
h-45l20 63h6q-126 32 -204 121t-78 241q0 118 52.5 199t141 121.5t196.5 40.5q111 0 220 -41v-91q-61 52 -124.5 79.5t-122.5 27.5q-76 0 -136 -43z" />
    <glyph glyph-name="Egrave" unicode="&#xc8;" horiz-adv-x="585" 
d="M36 0v702h510v-100q-76 45 -146 61.5t-146 17.5h-118v-275h351v-22h-351v-363h115q93 1 178.5 21t131.5 58v-100h-525zM400 778h-18l-225 194h95z" />
    <glyph glyph-name="Eacute" unicode="&#xc9;" horiz-adv-x="585" 
d="M36 0v702h510v-100q-76 45 -146 61.5t-146 17.5h-118v-275h351v-22h-351v-363h115q93 1 178.5 21t131.5 58v-100h-525zM513 972l-226 -194h-18l149 194h95z" />
    <glyph glyph-name="Ecircumflex" unicode="&#xca;" horiz-adv-x="585" 
d="M36 0v702h510v-100q-76 45 -146 61.5t-146 17.5h-118v-275h351v-22h-351v-363h115q93 1 178.5 21t131.5 58v-100h-525zM302 972l167 -182h-88l-89 162l-84 -162h-87l160 182h21z" />
    <glyph glyph-name="Edieresis" unicode="&#xcb;" horiz-adv-x="585" 
d="M36 0v702h510v-100q-76 45 -146 61.5t-146 17.5h-118v-275h351v-22h-351v-363h115q93 1 178.5 21t131.5 58v-100h-525zM202.5 835.5q-10.5 10.5 -10.5 26.5t10.5 26.5t26.5 10.5q15 0 25.5 -10.5t10.5 -26.5t-10.5 -26.5t-25.5 -10.5q-16 0 -26.5 10.5zM335 835.5
q-11 10.5 -11 26.5t11 26.5t27 10.5q15 0 25.5 -10.5t10.5 -26.5t-10.5 -26.5t-25.5 -10.5q-16 0 -27 10.5z" />
    <glyph glyph-name="Igrave" unicode="&#xcc;" horiz-adv-x="171" 
d="M136 0h-100v702h100v-702zM191 778h-18l-225 194h95z" />
    <glyph glyph-name="Iacute" unicode="&#xcd;" horiz-adv-x="171" 
d="M136 0h-100v702h100v-702zM304 972l-226 -194h-18l149 194h95z" />
    <glyph glyph-name="Icircumflex" unicode="&#xce;" horiz-adv-x="171" 
d="M136 0h-100v702h100v-702zM93 972l167 -182h-88l-89 162l-84 -162h-87l160 182h21z" />
    <glyph glyph-name="Idieresis" unicode="&#xcf;" horiz-adv-x="171" 
d="M136 0h-100v702h100v-702zM-6.5 835.5q-10.5 10.5 -10.5 26.5t10.5 26.5t26.5 10.5q15 0 25.5 -10.5t10.5 -26.5t-10.5 -26.5t-25.5 -10.5q-16 0 -26.5 10.5zM126 835.5q-11 10.5 -11 26.5t11 26.5t27 10.5q15 0 25.5 -10.5t10.5 -26.5t-10.5 -26.5t-25.5 -10.5
q-16 0 -27 10.5z" />
    <glyph glyph-name="Eth" unicode="&#xd0;" horiz-adv-x="651" 
d="M312 702q144 0 226 -85.5t82 -252.5q0 -124 -46 -205.5t-120 -120t-160 -38.5h-258v340h-68v21h68v341h276zM203 21q101 -1 170.5 29t108 106t38.5 208q0 118 -33.5 187.5t-101.5 99.5t-176 29l-73 8v-327h69v-21h-69v-330z" />
    <glyph glyph-name="Ntilde" unicode="&#xd1;" horiz-adv-x="605" 
d="M69 0h-21v664l-24 38h118l409 -643v643h21v-702h-98l-405 629v-629zM348 838q-26 9 -67 26q-36 15 -56.5 22t-35.5 7q-40 0 -40 -47h-10q0 50 25 73.5t53 23.5q23 0 50 -9t67 -26q38 -15 57 -21.5t33 -6.5q16 0 23 9.5t7 33.5h11q0 -50 -19.5 -72t-50.5 -22q-21 0 -47 9z
" />
    <glyph glyph-name="Ograve" unicode="&#xd2;" horiz-adv-x="715" 
d="M183 33q-74 49 -113 132t-39 182q0 90 36 175.5t109.5 140.5t181.5 55q107 0 181 -55t110 -140.5t36 -175.5q0 -99 -39 -182t-113 -132t-175 -49t-175 49zM488 57.5q51 52.5 74 131t23 158.5q0 78 -23.5 158.5t-74.5 136t-129 55.5q-84 0 -134.5 -55t-71.5 -134.5
t-21 -160.5q0 -79 24.5 -158t76 -131.5t126.5 -52.5q79 0 130 52.5zM463 778h-18l-225 194h95z" />
    <glyph glyph-name="Oacute" unicode="&#xd3;" horiz-adv-x="715" 
d="M183 33q-74 49 -113 132t-39 182q0 90 36 175.5t109.5 140.5t181.5 55q107 0 181 -55t110 -140.5t36 -175.5q0 -99 -39 -182t-113 -132t-175 -49t-175 49zM488 57.5q51 52.5 74 131t23 158.5q0 78 -23.5 158.5t-74.5 136t-129 55.5q-84 0 -134.5 -55t-71.5 -134.5
t-21 -160.5q0 -79 24.5 -158t76 -131.5t126.5 -52.5q79 0 130 52.5zM576 972l-226 -194h-18l149 194h95z" />
    <glyph glyph-name="Ocircumflex" unicode="&#xd4;" horiz-adv-x="715" 
d="M183 33q-74 49 -113 132t-39 182q0 90 36 175.5t109.5 140.5t181.5 55q107 0 181 -55t110 -140.5t36 -175.5q0 -99 -39 -182t-113 -132t-175 -49t-175 49zM488 57.5q51 52.5 74 131t23 158.5q0 78 -23.5 158.5t-74.5 136t-129 55.5q-84 0 -134.5 -55t-71.5 -134.5
t-21 -160.5q0 -79 24.5 -158t76 -131.5t126.5 -52.5q79 0 130 52.5zM365 972l167 -182h-88l-89 162l-84 -162h-87l160 182h21z" />
    <glyph glyph-name="Otilde" unicode="&#xd5;" horiz-adv-x="715" 
d="M183 33q-74 49 -113 132t-39 182q0 90 36 175.5t109.5 140.5t181.5 55q107 0 181 -55t110 -140.5t36 -175.5q0 -99 -39 -182t-113 -132t-175 -49t-175 49zM488 57.5q51 52.5 74 131t23 158.5q0 78 -23.5 158.5t-74.5 136t-129 55.5q-84 0 -134.5 -55t-71.5 -134.5
t-21 -160.5q0 -79 24.5 -158t76 -131.5t126.5 -52.5q79 0 130 52.5zM403 838q-26 9 -67 26q-36 15 -56.5 22t-35.5 7q-40 0 -40 -47h-10q0 50 25 73.5t53 23.5q23 0 50 -9t67 -26q38 -15 57 -21.5t33 -6.5q16 0 23 9.5t7 33.5h11q0 -50 -19.5 -72t-50.5 -22q-21 0 -47 9z
" />
    <glyph glyph-name="Odieresis" unicode="&#xd6;" horiz-adv-x="715" 
d="M183 33q-74 49 -113 132t-39 182q0 90 36 175.5t109.5 140.5t181.5 55q107 0 181 -55t110 -140.5t36 -175.5q0 -99 -39 -182t-113 -132t-175 -49t-175 49zM488 57.5q51 52.5 74 131t23 158.5q0 78 -23.5 158.5t-74.5 136t-129 55.5q-84 0 -134.5 -55t-71.5 -134.5
t-21 -160.5q0 -79 24.5 -158t76 -131.5t126.5 -52.5q79 0 130 52.5zM265.5 835.5q-10.5 10.5 -10.5 26.5t10.5 26.5t26.5 10.5q15 0 25.5 -10.5t10.5 -26.5t-10.5 -26.5t-25.5 -10.5q-16 0 -26.5 10.5zM398 835.5q-11 10.5 -11 26.5t11 26.5t27 10.5q15 0 25.5 -10.5
t10.5 -26.5t-10.5 -26.5t-25.5 -10.5q-16 0 -27 10.5z" />
    <glyph glyph-name="multiply" unicode="&#xd7;" horiz-adv-x="340" 
d="M292 456l15 -15l-122 -123l122 -122l-15 -15l-122 122l-122 -122l-15 15l122 122l-123 123l15 15l123 -123z" />
    <glyph glyph-name="Oslash" unicode="&#xd8;" horiz-adv-x="715" 
d="M475 697q69 -26 116.5 -82t70.5 -126t23 -142q0 -99 -39 -182t-113 -132t-175 -49q-46 0 -83 10l-28 -98h-21l29 103q-105 34 -164.5 129.5t-59.5 218.5q0 90 36 175.5t109.5 140.5t181.5 55q51 0 98 -14l29 102h21zM165 163q34 -90 100 -131l182 641q-40 24 -89 24
q-84 0 -134.5 -55t-71.5 -134.5t-21 -160.5q0 -94 34 -184zM488 57.5q51 52.5 74 131t23 158.5q0 89 -30 178.5t-90 135.5l-182 -639q34 -17 75 -17q79 0 130 52.5z" />
    <glyph glyph-name="Ugrave" unicode="&#xd9;" horiz-adv-x="631" 
d="M171 20q-63 35 -99 105t-36 170v407h101v-489q0 -108 51.5 -157.5t126.5 -49.5q74 0 124.5 49.5t50.5 157.5v489h100v-407q0 -101 -35.5 -170.5t-97.5 -104.5t-142 -35q-81 0 -144 35zM421 778h-18l-225 194h95z" />
    <glyph glyph-name="Uacute" unicode="&#xda;" horiz-adv-x="631" 
d="M171 20q-63 35 -99 105t-36 170v407h101v-489q0 -108 51.5 -157.5t126.5 -49.5q74 0 124.5 49.5t50.5 157.5v489h100v-407q0 -101 -35.5 -170.5t-97.5 -104.5t-142 -35q-81 0 -144 35zM534 972l-226 -194h-18l149 194h95z" />
    <glyph glyph-name="Ucircumflex" unicode="&#xdb;" horiz-adv-x="631" 
d="M171 20q-63 35 -99 105t-36 170v407h101v-489q0 -108 51.5 -157.5t126.5 -49.5q74 0 124.5 49.5t50.5 157.5v489h100v-407q0 -101 -35.5 -170.5t-97.5 -104.5t-142 -35q-81 0 -144 35zM323 972l167 -182h-88l-89 162l-84 -162h-87l160 182h21z" />
    <glyph glyph-name="Udieresis" unicode="&#xdc;" horiz-adv-x="631" 
d="M171 20q-63 35 -99 105t-36 170v407h101v-489q0 -108 51.5 -157.5t126.5 -49.5q74 0 124.5 49.5t50.5 157.5v489h100v-407q0 -101 -35.5 -170.5t-97.5 -104.5t-142 -35q-81 0 -144 35zM223.5 835.5q-10.5 10.5 -10.5 26.5t10.5 26.5t26.5 10.5q15 0 25.5 -10.5
t10.5 -26.5t-10.5 -26.5t-25.5 -10.5q-16 0 -26.5 10.5zM356 835.5q-11 10.5 -11 26.5t11 26.5t27 10.5q15 0 25.5 -10.5t10.5 -26.5t-10.5 -26.5t-25.5 -10.5q-16 0 -27 10.5z" />
    <glyph glyph-name="Yacute" unicode="&#xdd;" horiz-adv-x="445" 
d="M154 0v310l-224 392h100l216 -371l66 107q43 70 57 121t19 109q2 22 4 34h100l-238 -392v-310h-100zM441 972l-226 -194h-18l149 194h95z" />
    <glyph glyph-name="Thorn" unicode="&#xde;" horiz-adv-x="545" 
d="M272 573q123 0 188 -56.5t65 -155.5q0 -60 -30 -109t-87 -78t-136 -29h-136v-145h-100v702h100v-129h136zM241 166q97 -2 140.5 54.5t43.5 140.5q0 94 -41.5 142.5t-142.5 48.5h-105v-386h105z" />
    <glyph glyph-name="germandbls" unicode="&#xdf;" horiz-adv-x="664" 
d="M300 20.5q-66 38.5 -110 112.5l18 15q34 -61 86 -92.5t104 -31.5q56 0 93 37.5t37 96.5q0 62 -46.5 134t-144.5 140q26 43 58 102q29 54 29 92q0 37 -25 58.5t-66 21.5q-48 0 -97.5 -32t-82.5 -96t-33 -156v-422h-100v431q0 97 44 165t111 101.5t135 33.5
q67 0 106.5 -29.5t39.5 -80.5q0 -23 -9 -50q-9 -30 -29 -74q116 -75 171 -158t55 -161q0 -55 -26.5 -100t-73 -70.5t-105.5 -25.5q-73 0 -139 38.5z" />
    <glyph glyph-name="agrave" unicode="&#xe0;" horiz-adv-x="590" 
d="M572 0h-100l-46 107q-24 -49 -80 -86.5t-125 -37.5q-51 0 -92.5 20.5t-65.5 58t-24 86.5q0 63 41.5 125t131.5 105t227 47v59q-1 79 -76 79q-49 0 -116 -29t-130 -67v100q136 28 219 28q200 0 203 -148v-38h-80q-97 -1 -170.5 -34t-113.5 -89t-40 -126q0 -66 37 -105
t93 -39q47 0 89 30.5t65 78.5l-62 145h98zM413 654h-18l-225 194h95z" />
    <glyph glyph-name="aacute" unicode="&#xe1;" horiz-adv-x="590" 
d="M572 0h-100l-46 107q-24 -49 -80 -86.5t-125 -37.5q-51 0 -92.5 20.5t-65.5 58t-24 86.5q0 63 41.5 125t131.5 105t227 47v59q-1 79 -76 79q-49 0 -116 -29t-130 -67v100q136 28 219 28q200 0 203 -148v-38h-80q-97 -1 -170.5 -34t-113.5 -89t-40 -126q0 -66 37 -105
t93 -39q47 0 89 30.5t65 78.5l-62 145h98zM527 848l-226 -194h-18l149 194h95z" />
    <glyph glyph-name="acircumflex" unicode="&#xe2;" horiz-adv-x="590" 
d="M572 0h-100l-46 107q-24 -49 -80 -86.5t-125 -37.5q-51 0 -92.5 20.5t-65.5 58t-24 86.5q0 63 41.5 125t131.5 105t227 47v59q-1 79 -76 79q-49 0 -116 -29t-130 -67v100q136 28 219 28q200 0 203 -148v-38h-80q-97 -1 -170.5 -34t-113.5 -89t-40 -126q0 -66 37 -105
t93 -39q47 0 89 30.5t65 78.5l-62 145h98zM316 848l167 -182h-88l-89 162l-84 -162h-87l160 182h21z" />
    <glyph glyph-name="atilde" unicode="&#xe3;" horiz-adv-x="590" 
d="M572 0h-100l-46 107q-24 -49 -80 -86.5t-125 -37.5q-51 0 -92.5 20.5t-65.5 58t-24 86.5q0 63 41.5 125t131.5 105t227 47v59q-1 79 -76 79q-49 0 -116 -29t-130 -67v100q136 28 219 28q200 0 203 -148v-38h-80q-97 -1 -170.5 -34t-113.5 -89t-40 -126q0 -66 37 -105
t93 -39q47 0 89 30.5t65 78.5l-62 145h98zM353 714q-26 9 -67 26q-36 15 -56.5 22t-35.5 7q-40 0 -40 -47h-10q0 50 25 73.5t53 23.5q23 0 50 -9t67 -26q38 -15 57 -21.5t33 -6.5q16 0 23 9.5t7 33.5h11q0 -50 -19.5 -72t-50.5 -22q-21 0 -47 9z" />
    <glyph glyph-name="adieresis" unicode="&#xe4;" horiz-adv-x="590" 
d="M572 0h-100l-46 107q-24 -49 -80 -86.5t-125 -37.5q-51 0 -92.5 20.5t-65.5 58t-24 86.5q0 63 41.5 125t131.5 105t227 47v59q-1 79 -76 79q-49 0 -116 -29t-130 -67v100q136 28 219 28q200 0 203 -148v-38h-80q-97 -1 -170.5 -34t-113.5 -89t-40 -126q0 -66 37 -105
t93 -39q47 0 89 30.5t65 78.5l-62 145h98zM215.5 711.5q-10.5 10.5 -10.5 26.5t10.5 26.5t26.5 10.5q15 0 25.5 -10.5t10.5 -26.5t-10.5 -26.5t-25.5 -10.5q-16 0 -26.5 10.5zM348 711.5q-11 10.5 -11 26.5t11 26.5t27 10.5q15 0 25.5 -10.5t10.5 -26.5t-10.5 -26.5
t-25.5 -10.5q-16 0 -27 10.5z" />
    <glyph glyph-name="aring" unicode="&#xe5;" horiz-adv-x="590" 
d="M572 0h-100l-46 107q-24 -49 -80 -86.5t-125 -37.5q-51 0 -92.5 20.5t-65.5 58t-24 86.5q0 63 41.5 125t131.5 105t227 47v59q-1 79 -76 79q-49 0 -116 -29t-130 -67v100q136 28 219 28q200 0 203 -148v-38h-80q-97 -1 -170.5 -34t-113.5 -89t-40 -126q0 -66 37 -105
t93 -39q47 0 89 30.5t65 78.5l-62 145h98zM243.5 690.5q-24.5 24.5 -24.5 59.5t24.5 59.5t59.5 24.5t59.5 -24.5t24.5 -59.5t-24.5 -59.5t-59.5 -24.5t-59.5 24.5zM338 704q13 16 13 46t-13 46t-35 16t-35 -16t-13 -46t13 -46t35 -16t35 16z" />
    <glyph glyph-name="ae" unicode="&#xe6;" horiz-adv-x="1082" 
d="M633 127.5q34 -57.5 88.5 -88t119.5 -30.5q106 0 208 76v-85q-91 -22 -177 -22q-110 0 -198.5 37t-135.5 113q-47 -69 -126.5 -106t-156.5 -37q-57 0 -106.5 19.5t-79.5 57.5t-30 89q0 90 83 135t204 45q87 0 166 -22v82q0 86 -36.5 127t-95.5 41q-58 0 -125.5 -38
t-114.5 -95v100q46 30 105 47.5t117 17.5q71 0 128.5 -23t88.5 -71q43 48 108.5 72.5t144.5 24.5q77 0 131 -22.5t80.5 -61t26.5 -84.5q0 -52 -38.5 -93t-108 -64t-159.5 -23q-73 0 -152 16q7 -77 41 -134.5zM692.5 534q-49.5 -38 -76 -101t-26.5 -134v-19q64 -8 111 -8
q121 0 188.5 44t67.5 121q0 55 -34.5 95t-114.5 40q-66 0 -115.5 -38zM380 40.5q47 30.5 78 93t34 152.5q-76 19 -150 19q-90 0 -146.5 -36t-56.5 -116q0 -42 20 -74.5t53 -50.5t71 -18q50 0 97 30.5z" />
    <glyph glyph-name="ccedilla" unicode="&#xe7;" horiz-adv-x="550" 
d="M198.5 26.5q-82.5 37.5 -128.5 109t-46 170.5q0 97 43 161.5t117.5 95t169.5 30.5q83 0 180 -25v-96q-54 51 -106.5 74.5t-99.5 23.5q-93 0 -147.5 -71.5t-54.5 -200.5q0 -138 55.5 -206t161.5 -68q80 0 186 60v-80q-73 -15 -141 -15q-107 0 -189.5 37.5zM163 -230
q68 -1 113 26t45 81q0 28 -12 44t-35 16h-45l20 63h22l-15 -49h45q36 0 57.5 -17t21.5 -49q0 -66 -54 -96t-133 -30q-20 0 -30 1v10z" />
    <glyph glyph-name="egrave" unicode="&#xe8;" horiz-adv-x="615" 
d="M166 127.5q34 -57.5 88.5 -88t119.5 -30.5q106 0 208 76v-85q-91 -22 -177 -22q-105 0 -191 34t-138 107.5t-52 185.5q0 92 41.5 157.5t114.5 98.5t165 33q77 0 131 -22.5t80.5 -61t26.5 -84.5q0 -52 -38.5 -93t-108 -64t-159.5 -23q-73 0 -152 16q7 -77 41 -134.5z
M225.5 534q-49.5 -38 -76 -101t-26.5 -134v-19q64 -8 111 -8q121 0 188.5 44t67.5 121q0 55 -34.5 95t-114.5 40q-66 0 -115.5 -38zM430 654h-18l-225 194h95z" />
    <glyph glyph-name="eacute" unicode="&#xe9;" horiz-adv-x="615" 
d="M166 127.5q34 -57.5 88.5 -88t119.5 -30.5q106 0 208 76v-85q-91 -22 -177 -22q-105 0 -191 34t-138 107.5t-52 185.5q0 92 41.5 157.5t114.5 98.5t165 33q77 0 131 -22.5t80.5 -61t26.5 -84.5q0 -52 -38.5 -93t-108 -64t-159.5 -23q-73 0 -152 16q7 -77 41 -134.5z
M225.5 534q-49.5 -38 -76 -101t-26.5 -134v-19q64 -8 111 -8q121 0 188.5 44t67.5 121q0 55 -34.5 95t-114.5 40q-66 0 -115.5 -38zM543 848l-226 -194h-18l149 194h95z" />
    <glyph glyph-name="ecircumflex" unicode="&#xea;" horiz-adv-x="615" 
d="M166 127.5q34 -57.5 88.5 -88t119.5 -30.5q106 0 208 76v-85q-91 -22 -177 -22q-105 0 -191 34t-138 107.5t-52 185.5q0 92 41.5 157.5t114.5 98.5t165 33q77 0 131 -22.5t80.5 -61t26.5 -84.5q0 -52 -38.5 -93t-108 -64t-159.5 -23q-73 0 -152 16q7 -77 41 -134.5z
M225.5 534q-49.5 -38 -76 -101t-26.5 -134v-19q64 -8 111 -8q121 0 188.5 44t67.5 121q0 55 -34.5 95t-114.5 40q-66 0 -115.5 -38zM332 848l167 -182h-88l-89 162l-84 -162h-87l160 182h21z" />
    <glyph glyph-name="edieresis" unicode="&#xeb;" horiz-adv-x="615" 
d="M166 127.5q34 -57.5 88.5 -88t119.5 -30.5q106 0 208 76v-85q-91 -22 -177 -22q-105 0 -191 34t-138 107.5t-52 185.5q0 92 41.5 157.5t114.5 98.5t165 33q77 0 131 -22.5t80.5 -61t26.5 -84.5q0 -52 -38.5 -93t-108 -64t-159.5 -23q-73 0 -152 16q7 -77 41 -134.5z
M225.5 534q-49.5 -38 -76 -101t-26.5 -134v-19q64 -8 111 -8q121 0 188.5 44t67.5 121q0 55 -34.5 95t-114.5 40q-66 0 -115.5 -38zM232.5 711.5q-10.5 10.5 -10.5 26.5t10.5 26.5t26.5 10.5q15 0 25.5 -10.5t10.5 -26.5t-10.5 -26.5t-25.5 -10.5q-16 0 -26.5 10.5z
M365 711.5q-11 10.5 -11 26.5t11 26.5t27 10.5q15 0 25.5 -10.5t10.5 -26.5t-10.5 -26.5t-25.5 -10.5q-16 0 -27 10.5z" />
    <glyph glyph-name="igrave" unicode="&#xec;" horiz-adv-x="192" 
d="M151 0h-100v578h100v-578zM204 654h-18l-225 194h95z" />
    <glyph glyph-name="iacute" unicode="&#xed;" horiz-adv-x="192" 
d="M151 0h-100v578h100v-578zM318 848l-226 -194h-18l149 194h95z" />
    <glyph glyph-name="icircumflex" unicode="&#xee;" horiz-adv-x="192" 
d="M151 0h-100v578h100v-578zM107 848l167 -182h-88l-89 162l-84 -162h-87l160 182h21z" />
    <glyph glyph-name="idieresis" unicode="&#xef;" horiz-adv-x="192" 
d="M151 0h-100v578h100v-578zM6.5 711.5q-10.5 10.5 -10.5 26.5t10.5 26.5t26.5 10.5q15 0 25.5 -10.5t10.5 -26.5t-10.5 -26.5t-25.5 -10.5q-16 0 -26.5 10.5zM139 711.5q-11 10.5 -11 26.5t11 26.5t27 10.5q15 0 25.5 -10.5t10.5 -26.5t-10.5 -26.5t-25.5 -10.5
q-16 0 -27 10.5z" />
    <glyph glyph-name="eth" unicode="&#xf0;" horiz-adv-x="626" 
d="M362 776q120 -92 179.5 -212.5t59.5 -241.5q0 -97 -32 -174.5t-98.5 -123t-163.5 -45.5q-84 0 -148 36t-99.5 103.5t-35.5 159.5q0 101 36.5 172.5t99 108t140.5 36.5q74 0 150 -33v-24q-67 33 -127 33q-94 0 -146.5 -71.5t-52.5 -201.5q0 -143 50 -219t133 -76
q64 0 107.5 46t65 118.5t21.5 154.5q0 281 -166 437l-102 -63l-13 17l98 62q-43 38 -102 70l6 16q64 -30 121 -71l97 61l13 -19z" />
    <glyph glyph-name="ntilde" unicode="&#xf1;" horiz-adv-x="619" 
d="M486.5 576.5q35.5 -15.5 58.5 -48.5t23 -82v-446h-100v421q0 60 -33 90.5t-78 30.5q-50 0 -107.5 -39t-98.5 -98v-405h-100v578h100v-141q46 66 120 110.5t142 44.5q38 0 73.5 -15.5zM359 714q-26 9 -67 26q-36 15 -56.5 22t-35.5 7q-40 0 -40 -47h-10q0 50 25 73.5
t53 23.5q23 0 50 -9t67 -26q38 -15 57 -21.5t33 -6.5q16 0 23 9.5t7 33.5h11q0 -50 -19.5 -72t-50.5 -22q-21 0 -47 9z" />
    <glyph glyph-name="ograve" unicode="&#xf2;" horiz-adv-x="607" 
d="M159.5 17.5q-63.5 34.5 -99.5 103t-36 166.5q0 99 36 168.5t99.5 104.5t144.5 35t144 -35t98.5 -104.5t35.5 -168.5q0 -98 -35.5 -166.5t-98.5 -103t-144 -34.5t-144.5 34.5zM395.5 40.5q41.5 35.5 66.5 99.5t25 147q0 81 -25 146t-67 102t-91 37q-50 0 -92 -37t-67 -102
t-25 -146q0 -83 25 -147t67 -99.5t92 -35.5t91.5 35.5zM409 654h-18l-225 194h95z" />
    <glyph glyph-name="oacute" unicode="&#xf3;" horiz-adv-x="607" 
d="M159.5 17.5q-63.5 34.5 -99.5 103t-36 166.5q0 99 36 168.5t99.5 104.5t144.5 35t144 -35t98.5 -104.5t35.5 -168.5q0 -98 -35.5 -166.5t-98.5 -103t-144 -34.5t-144.5 34.5zM395.5 40.5q41.5 35.5 66.5 99.5t25 147q0 81 -25 146t-67 102t-91 37q-50 0 -92 -37t-67 -102
t-25 -146q0 -83 25 -147t67 -99.5t92 -35.5t91.5 35.5zM522 848l-226 -194h-18l149 194h95z" />
    <glyph glyph-name="ocircumflex" unicode="&#xf4;" horiz-adv-x="607" 
d="M159.5 17.5q-63.5 34.5 -99.5 103t-36 166.5q0 99 36 168.5t99.5 104.5t144.5 35t144 -35t98.5 -104.5t35.5 -168.5q0 -98 -35.5 -166.5t-98.5 -103t-144 -34.5t-144.5 34.5zM395.5 40.5q41.5 35.5 66.5 99.5t25 147q0 81 -25 146t-67 102t-91 37q-50 0 -92 -37t-67 -102
t-25 -146q0 -83 25 -147t67 -99.5t92 -35.5t91.5 35.5zM311 848l167 -182h-88l-89 162l-84 -162h-87l160 182h21z" />
    <glyph glyph-name="otilde" unicode="&#xf5;" horiz-adv-x="607" 
d="M159.5 17.5q-63.5 34.5 -99.5 103t-36 166.5q0 99 36 168.5t99.5 104.5t144.5 35t144 -35t98.5 -104.5t35.5 -168.5q0 -98 -35.5 -166.5t-98.5 -103t-144 -34.5t-144.5 34.5zM395.5 40.5q41.5 35.5 66.5 99.5t25 147q0 81 -25 146t-67 102t-91 37q-50 0 -92 -37t-67 -102
t-25 -146q0 -83 25 -147t67 -99.5t92 -35.5t91.5 35.5zM349 714q-26 9 -67 26q-36 15 -56.5 22t-35.5 7q-40 0 -40 -47h-10q0 50 25 73.5t53 23.5q23 0 50 -9t67 -26q38 -15 57 -21.5t33 -6.5q16 0 23 9.5t7 33.5h11q0 -50 -19.5 -72t-50.5 -22q-21 0 -47 9z" />
    <glyph glyph-name="odieresis" unicode="&#xf6;" horiz-adv-x="607" 
d="M159.5 17.5q-63.5 34.5 -99.5 103t-36 166.5q0 99 36 168.5t99.5 104.5t144.5 35t144 -35t98.5 -104.5t35.5 -168.5q0 -98 -35.5 -166.5t-98.5 -103t-144 -34.5t-144.5 34.5zM395.5 40.5q41.5 35.5 66.5 99.5t25 147q0 81 -25 146t-67 102t-91 37q-50 0 -92 -37t-67 -102
t-25 -146q0 -83 25 -147t67 -99.5t92 -35.5t91.5 35.5zM211.5 711.5q-10.5 10.5 -10.5 26.5t10.5 26.5t26.5 10.5q15 0 25.5 -10.5t10.5 -26.5t-10.5 -26.5t-25.5 -10.5q-16 0 -26.5 10.5zM344 711.5q-11 10.5 -11 26.5t11 26.5t27 10.5q15 0 25.5 -10.5t10.5 -26.5
t-10.5 -26.5t-25.5 -10.5q-16 0 -27 10.5z" />
    <glyph glyph-name="divide" unicode="&#xf7;" horiz-adv-x="432" 
d="M400 298h-367v21h367v-21zM163.5 116.5q-15.5 15.5 -15.5 38.5t15 38.5t38 15.5t38.5 -15.5t15.5 -38.5t-15.5 -38.5t-38.5 -15.5q-22 0 -37.5 15.5zM163.5 431.5q-15.5 15.5 -15.5 38.5t15 38.5t38 15.5t38.5 -15.5t15.5 -38.5t-15.5 -38.5t-38.5 -15.5
q-22 0 -37.5 15.5z" />
    <glyph glyph-name="oslash" unicode="&#xf8;" horiz-adv-x="607" 
d="M405 579q82 -28 129.5 -102.5t47.5 -189.5q0 -98 -35.5 -166.5t-98.5 -103t-144 -34.5q-36 0 -67 7l-44 -156h-21l46 160q-90 25 -142 100t-52 193q0 99 36 168.5t99.5 104.5t144.5 35q45 0 82 -10l45 159h21zM149.5 129q29.5 -68 77.5 -100l149 521q-35 22 -72 22
q-50 0 -92 -37t-67 -102t-25 -146q0 -90 29.5 -158zM395.5 40.5q41.5 35.5 66.5 99.5t25 147q0 82 -25.5 148t-68.5 102l-147 -519q29 -13 58 -13q50 0 91.5 35.5z" />
    <glyph glyph-name="ugrave" unicode="&#xf9;" horiz-adv-x="575" 
d="M436 578h100v-578h-100v85q-35 -45 -91.5 -72t-113.5 -27q-52 0 -95.5 23.5t-70 72t-26.5 121.5v375h100v-398q0 -85 33 -124.5t87 -39.5q45 0 95 26.5t82 65.5v470zM393 654h-18l-225 194h95z" />
    <glyph glyph-name="uacute" unicode="&#xfa;" horiz-adv-x="575" 
d="M436 578h100v-578h-100v85q-35 -45 -91.5 -72t-113.5 -27q-52 0 -95.5 23.5t-70 72t-26.5 121.5v375h100v-398q0 -85 33 -124.5t87 -39.5q45 0 95 26.5t82 65.5v470zM506 848l-226 -194h-18l149 194h95z" />
    <glyph glyph-name="ucircumflex" unicode="&#xfb;" horiz-adv-x="575" 
d="M436 578h100v-578h-100v85q-35 -45 -91.5 -72t-113.5 -27q-52 0 -95.5 23.5t-70 72t-26.5 121.5v375h100v-398q0 -85 33 -124.5t87 -39.5q45 0 95 26.5t82 65.5v470zM296 848l167 -182h-88l-89 162l-84 -162h-87l160 182h21z" />
    <glyph glyph-name="udieresis" unicode="&#xfc;" horiz-adv-x="575" 
d="M436 578h100v-578h-100v85q-35 -45 -91.5 -72t-113.5 -27q-52 0 -95.5 23.5t-70 72t-26.5 121.5v375h100v-398q0 -85 33 -124.5t87 -39.5q45 0 95 26.5t82 65.5v470zM195.5 711.5q-10.5 10.5 -10.5 26.5t10.5 26.5t26.5 10.5q15 0 25.5 -10.5t10.5 -26.5t-10.5 -26.5
t-25.5 -10.5q-16 0 -26.5 10.5zM328 711.5q-11 10.5 -11 26.5t11 26.5t27 10.5q15 0 25.5 -10.5t10.5 -26.5t-10.5 -26.5t-25.5 -10.5q-16 0 -27 10.5z" />
    <glyph glyph-name="yacute" unicode="&#xfd;" horiz-adv-x="519" 
d="M-82 -96q128 -59 220 -59q66 0 101.5 27.5t35.5 68.5q0 21 -8 38l-270 599h100l235 -515l107 297q24 86 24 154q0 33 -4 64h80l-207 -578l-22.5 -67.5t-81 -98.5t-155.5 -40q-78 0 -180 27zM495 848l-226 -194h-18l149 194h95z" />
    <glyph glyph-name="thorn" unicode="&#xfe;" horiz-adv-x="608" 
d="M478.5 559.5q47.5 -32.5 76.5 -92.5t29 -140q0 -105 -39.5 -182.5t-103.5 -118t-135 -40.5q-42 0 -82 15t-73 45v-215h-100v871h100v-263q45 77 103.5 115t120.5 38q56 0 103.5 -32.5zM383 57q46 33 73.5 95t27.5 146q0 77 -20 132.5t-54 83.5t-76 28q-47 0 -95 -36
t-88 -107v-320q31 -27 65 -41t68 -14q53 0 99 33z" />
    <glyph glyph-name="ydieresis" unicode="&#xff;" horiz-adv-x="519" 
d="M-82 -96q128 -59 220 -59q66 0 101.5 27.5t35.5 68.5q0 21 -8 38l-270 599h100l235 -515l107 297q24 86 24 154q0 33 -4 64h80l-207 -578l-22.5 -67.5t-81 -98.5t-155.5 -40q-78 0 -180 27zM184.5 711.5q-10.5 10.5 -10.5 26.5t10.5 26.5t26.5 10.5q15 0 25.5 -10.5
t10.5 -26.5t-10.5 -26.5t-25.5 -10.5q-16 0 -26.5 10.5zM317 711.5q-11 10.5 -11 26.5t11 26.5t27 10.5q15 0 25.5 -10.5t10.5 -26.5t-10.5 -26.5t-25.5 -10.5q-16 0 -27 10.5z" />
    <glyph glyph-name="Amacron" unicode="&#x100;" horiz-adv-x="615" 
d="M4 0h-21l262 660l-16 42h95l277 -702h-97l-117 299h-264zM256 632l-124 -312h246zM384 852h-212v21h212v-21z" />
    <glyph glyph-name="amacron" unicode="&#x101;" horiz-adv-x="590" 
d="M572 0h-100l-46 107q-24 -49 -80 -86.5t-125 -37.5q-51 0 -92.5 20.5t-65.5 58t-24 86.5q0 63 41.5 125t131.5 105t227 47v59q-1 79 -76 79q-49 0 -116 -29t-130 -67v100q136 28 219 28q200 0 203 -148v-38h-80q-97 -1 -170.5 -34t-113.5 -89t-40 -126q0 -66 37 -105
t93 -39q47 0 89 30.5t65 78.5l-62 145h98zM411 728h-212v21h212v-21z" />
    <glyph glyph-name="Abreve" unicode="&#x102;" horiz-adv-x="615" 
d="M4 0h-21l262 660l-16 42h95l277 -702h-97l-117 299h-264zM256 632l-124 -312h246zM169 864.5q-35 41.5 -40 95.5h17q23 -72 135 -72q109 0 135 72h16q-6 -55 -41 -96t-110 -41q-77 0 -112 41.5z" />
    <glyph glyph-name="abreve" unicode="&#x103;" horiz-adv-x="590" 
d="M572 0h-100l-46 107q-24 -49 -80 -86.5t-125 -37.5q-51 0 -92.5 20.5t-65.5 58t-24 86.5q0 63 41.5 125t131.5 105t227 47v59q-1 79 -76 79q-49 0 -116 -29t-130 -67v100q136 28 219 28q200 0 203 -148v-38h-80q-97 -1 -170.5 -34t-113.5 -89t-40 -126q0 -66 37 -105
t93 -39q47 0 89 30.5t65 78.5l-62 145h98zM196 740.5q-35 41.5 -40 95.5h17q23 -72 135 -72q109 0 135 72h16q-6 -55 -41 -96t-110 -41q-77 0 -112 41.5z" />
    <glyph glyph-name="Aogonek" unicode="&#x104;" horiz-adv-x="615" 
d="M527 -4q-49 0 -77 -27t-28 -63q0 -33 24 -54t59 -21q7 0 19 2v-61q-31 -11 -55 -11q-58 0 -92 35.5t-34 84.5q0 33 17.5 62.5t53 48t86.5 18.5l-113 289h-264l-119 -299h-21l262 660l-16 42h95l277 -702h-74v-4zM256 632l-124 -312h246z" />
    <glyph glyph-name="aogonek" unicode="&#x105;" horiz-adv-x="590" 
d="M455 270l117 -270h-1v-14q-49 0 -77 -27t-28 -63q0 -33 24 -54t59 -21q7 0 19 2v-61q-31 -11 -55 -11q-58 0 -92 35.5t-34 84.5q0 33 17.5 62.5t53 48t86.5 18.5h-72l-46 107q-24 -49 -80 -86.5t-125 -37.5q-51 0 -92.5 20.5t-65.5 58t-24 86.5q0 63 41.5 125t131.5 105
t227 47v59q-1 79 -76 79q-49 0 -116 -29t-130 -67v100q136 28 219 28q200 0 203 -148v-38h-80q-97 -1 -170.5 -34t-113.5 -89t-40 -126q0 -66 37 -105t93 -39q47 0 89 30.5t65 78.5l-62 145h98z" />
    <glyph glyph-name="Cacute" unicode="&#x106;" horiz-adv-x="655" 
d="M252 20q-98 38 -159.5 123.5t-61.5 218.5q0 118 52.5 199t141 121.5t196.5 40.5q111 0 220 -41v-91q-61 52 -124.5 79.5t-122.5 27.5q-76 0 -136 -43t-93.5 -120.5t-33.5 -177.5q0 -120 40 -197.5t105.5 -112.5t145.5 -35q57 0 114 22.5t105 65.5v-100q-78 -18 -178 -18
q-113 0 -211 38zM547 972l-226 -194h-18l149 194h95z" />
    <glyph glyph-name="cacute" unicode="&#x107;" horiz-adv-x="550" 
d="M198.5 26.5q-82.5 37.5 -128.5 109t-46 170.5q0 97 43 161.5t117.5 95t169.5 30.5q83 0 180 -25v-96q-54 51 -106.5 74.5t-99.5 23.5q-93 0 -147.5 -71.5t-54.5 -200.5q0 -138 55.5 -206t161.5 -68q80 0 186 60v-80q-73 -15 -141 -15q-107 0 -189.5 37.5zM522 848
l-226 -194h-18l149 194h95z" />
    <glyph glyph-name="Cdotaccent" unicode="&#x10a;" horiz-adv-x="655" 
d="M252 20q-98 38 -159.5 123.5t-61.5 218.5q0 118 52.5 199t141 121.5t196.5 40.5q111 0 220 -41v-91q-61 52 -124.5 79.5t-122.5 27.5q-76 0 -136 -43t-93.5 -120.5t-33.5 -177.5q0 -120 40 -197.5t105.5 -112.5t145.5 -35q57 0 114 22.5t105 65.5v-100q-78 -18 -178 -18
q-113 0 -211 38zM291.5 840.5q-15.5 15.5 -15.5 38.5t15 38.5t38 15.5t38.5 -15.5t15.5 -38.5t-15.5 -38.5t-38.5 -15.5q-22 0 -37.5 15.5z" />
    <glyph glyph-name="cdotaccent" unicode="&#x10b;" horiz-adv-x="550" 
d="M198.5 26.5q-82.5 37.5 -128.5 109t-46 170.5q0 97 43 161.5t117.5 95t169.5 30.5q83 0 180 -25v-96q-54 51 -106.5 74.5t-99.5 23.5q-93 0 -147.5 -71.5t-54.5 -200.5q0 -138 55.5 -206t161.5 -68q80 0 186 60v-80q-73 -15 -141 -15q-107 0 -189.5 37.5zM266.5 716.5
q-15.5 15.5 -15.5 38.5t15 38.5t38 15.5t38.5 -15.5t15.5 -38.5t-15.5 -38.5t-38.5 -15.5q-22 0 -37.5 15.5z" />
    <glyph glyph-name="Ccaron" unicode="&#x10c;" horiz-adv-x="655" 
d="M252 20q-98 38 -159.5 123.5t-61.5 218.5q0 118 52.5 199t141 121.5t196.5 40.5q111 0 220 -41v-91q-61 52 -124.5 79.5t-122.5 27.5q-76 0 -136 -43t-93.5 -120.5t-33.5 -177.5q0 -120 40 -197.5t105.5 -112.5t145.5 -35q57 0 114 22.5t105 65.5v-100q-78 -18 -178 -18
q-113 0 -211 38zM326 810l89 162h88l-167 -182h-21l-160 182h87z" />
    <glyph glyph-name="ccaron" unicode="&#x10d;" horiz-adv-x="550" 
d="M198.5 26.5q-82.5 37.5 -128.5 109t-46 170.5q0 97 43 161.5t117.5 95t169.5 30.5q83 0 180 -25v-96q-54 51 -106.5 74.5t-99.5 23.5q-93 0 -147.5 -71.5t-54.5 -200.5q0 -138 55.5 -206t161.5 -68q80 0 186 60v-80q-73 -15 -141 -15q-107 0 -189.5 37.5zM301 686l89 162
h88l-167 -182h-21l-160 182h87z" />
    <glyph glyph-name="Dcaron" unicode="&#x10e;" horiz-adv-x="651" 
d="M36 0v702h276q144 0 226 -85.5t82 -252.5q0 -124 -46 -205.5t-120 -120t-160 -38.5h-258zM203 21q101 -1 170.5 29t108 106t38.5 208q0 118 -33.5 187.5t-101.5 99.5t-176 29l-73 8v-678zM293 810l89 162h88l-167 -182h-21l-160 182h87z" />
    <glyph glyph-name="dcaron" unicode="&#x10f;" horiz-adv-x="841" 
d="M140 20.5q-52 35.5 -84 102t-32 155.5q0 101 36.5 172.5t99.5 108t141 36.5q73 0 149 -32v29q0 53 27 105t81.5 93.5t132.5 64.5v-62q-56 2 -85.5 -9t-42.5 -40t-13 -86v-658h-100v156h-2q-28 -84 -81.5 -127.5t-116.5 -43.5q-58 0 -110 35.5zM354.5 60.5
q35.5 23.5 61.5 67t34 99.5v312q-58 29 -116 29q-60 0 -107.5 -32.5t-75 -97t-27.5 -155.5q0 -78 22 -133.5t58 -84t77 -28.5q38 0 73.5 23.5zM783 580h-21v211h80z" />
    <glyph glyph-name="Dcroat" unicode="&#x110;" horiz-adv-x="651" 
d="M312 702q144 0 226 -85.5t82 -252.5q0 -124 -46 -205.5t-120 -120t-160 -38.5h-258v340h-68v21h68v341h276zM203 21q101 -1 170.5 29t108 106t38.5 208q0 118 -33.5 187.5t-101.5 99.5t-176 29l-73 8v-327h69v-21h-69v-330z" />
    <glyph glyph-name="dcroat" unicode="&#x111;" horiz-adv-x="584" 
d="M456 641q17 70 77 127.5t158 86.5v-62q-56 2 -85.5 -9t-42.5 -40t-13 -86v-17h68v-21h-68v-620h-100v156h-2q-28 -84 -81.5 -127.5t-116.5 -43.5q-58 0 -110 35.5t-84 102t-32 155.5q0 101 36.5 172.5t99.5 108t141 36.5q73 0 149 -32v29q0 10 2 28h-71v21h75zM450 539
q-58 29 -116 29q-60 0 -107.5 -32.5t-75 -97t-27.5 -155.5q0 -78 22 -133.5t58 -84t77 -28.5q38 0 73.5 23.5t61.5 67t34 99.5v312z" />
    <glyph glyph-name="Emacron" unicode="&#x112;" horiz-adv-x="585" 
d="M36 0v702h510v-100q-76 45 -146 61.5t-146 17.5h-118v-275h351v-22h-351v-363h115q93 1 178.5 21t131.5 58v-100h-525zM397 852h-212v21h212v-21z" />
    <glyph glyph-name="emacron" unicode="&#x113;" horiz-adv-x="615" 
d="M166 127.5q34 -57.5 88.5 -88t119.5 -30.5q106 0 208 76v-85q-91 -22 -177 -22q-105 0 -191 34t-138 107.5t-52 185.5q0 92 41.5 157.5t114.5 98.5t165 33q77 0 131 -22.5t80.5 -61t26.5 -84.5q0 -52 -38.5 -93t-108 -64t-159.5 -23q-73 0 -152 16q7 -77 41 -134.5z
M225.5 534q-49.5 -38 -76 -101t-26.5 -134v-19q64 -8 111 -8q121 0 188.5 44t67.5 121q0 55 -34.5 95t-114.5 40q-66 0 -115.5 -38zM427 728h-212v21h212v-21z" />
    <glyph glyph-name="Edotaccent" unicode="&#x116;" horiz-adv-x="585" 
d="M36 0v702h510v-100q-76 45 -146 61.5t-146 17.5h-118v-275h351v-22h-351v-363h115q93 1 178.5 21t131.5 58v-100h-525zM256.5 840.5q-15.5 15.5 -15.5 38.5t15 38.5t38 15.5t38.5 -15.5t15.5 -38.5t-15.5 -38.5t-38.5 -15.5q-22 0 -37.5 15.5z" />
    <glyph glyph-name="edotaccent" unicode="&#x117;" horiz-adv-x="615" 
d="M166 127.5q34 -57.5 88.5 -88t119.5 -30.5q106 0 208 76v-85q-91 -22 -177 -22q-105 0 -191 34t-138 107.5t-52 185.5q0 92 41.5 157.5t114.5 98.5t165 33q77 0 131 -22.5t80.5 -61t26.5 -84.5q0 -52 -38.5 -93t-108 -64t-159.5 -23q-73 0 -152 16q7 -77 41 -134.5z
M225.5 534q-49.5 -38 -76 -101t-26.5 -134v-19q64 -8 111 -8q121 0 188.5 44t67.5 121q0 55 -34.5 95t-114.5 40q-66 0 -115.5 -38zM287.5 716.5q-15.5 15.5 -15.5 38.5t15 38.5t38 15.5t38.5 -15.5t15.5 -38.5t-15.5 -38.5t-38.5 -15.5q-22 0 -37.5 15.5z" />
    <glyph glyph-name="Eogonek" unicode="&#x118;" horiz-adv-x="585" 
d="M251 21q93 1 178.5 21t131.5 58v-110q-49 0 -77 -27t-28 -63q0 -33 24 -54t59 -21q7 0 19 2v-61q-31 -11 -55 -11q-58 0 -92 35.5t-34 84.5q0 44 29 79t84 46h-454v702h510v-100q-76 45 -146 61.5t-146 17.5h-118v-275h351v-22h-351v-363h115z" />
    <glyph glyph-name="eogonek" unicode="&#x119;" horiz-adv-x="615" 
d="M166 127.5q34 -57.5 88.5 -88t119.5 -30.5q106 0 208 76v-85l-8 -2v-6q-49 0 -77 -27t-28 -63q0 -33 24 -54t59 -21q7 0 19 2v-61q-31 -11 -55 -11q-58 0 -92 35.5t-34 84.5q0 30 14 57t42 45q-14 -1 -41 -1q-105 0 -191 34t-138 107.5t-52 185.5q0 92 41.5 157.5
t114.5 98.5t165 33q77 0 131 -22.5t80.5 -61t26.5 -84.5q0 -52 -38.5 -93t-108 -64t-159.5 -23q-73 0 -152 16q7 -77 41 -134.5zM225.5 534q-49.5 -38 -76 -101t-26.5 -134v-19q64 -8 111 -8q121 0 188.5 44t67.5 121q0 55 -34.5 95t-114.5 40q-66 0 -115.5 -38z" />
    <glyph glyph-name="Ecaron" unicode="&#x11a;" horiz-adv-x="585" 
d="M36 0v702h510v-100q-76 45 -146 61.5t-146 17.5h-118v-275h351v-22h-351v-363h115q93 1 178.5 21t131.5 58v-100h-525zM292 810l89 162h88l-167 -182h-21l-160 182h87z" />
    <glyph glyph-name="ecaron" unicode="&#x11b;" horiz-adv-x="615" 
d="M166 127.5q34 -57.5 88.5 -88t119.5 -30.5q106 0 208 76v-85q-91 -22 -177 -22q-105 0 -191 34t-138 107.5t-52 185.5q0 92 41.5 157.5t114.5 98.5t165 33q77 0 131 -22.5t80.5 -61t26.5 -84.5q0 -52 -38.5 -93t-108 -64t-159.5 -23q-73 0 -152 16q7 -77 41 -134.5z
M225.5 534q-49.5 -38 -76 -101t-26.5 -134v-19q64 -8 111 -8q121 0 188.5 44t67.5 121q0 55 -34.5 95t-114.5 40q-66 0 -115.5 -38zM322 686l89 162h88l-167 -182h-21l-160 182h87z" />
    <glyph glyph-name="Gbreve" unicode="&#x11e;" horiz-adv-x="701" 
d="M221 25.5q-87 37.5 -138.5 119.5t-51.5 208q0 193 118 283t305 90q104 0 207 -24v-129q-63 60 -132 91.5t-133 31.5q-77 0 -136.5 -38.5t-94 -117t-34.5 -192.5q0 -102 40.5 -177t109.5 -114.5t151 -39.5q75 0 139 33v124q0 65 -8.5 106.5t-35.5 86.5h136v-336
q-129 -43 -245 -43q-110 0 -197 37.5zM238 864.5q-35 41.5 -40 95.5h17q23 -72 135 -72q109 0 135 72h16q-6 -55 -41 -96t-110 -41q-77 0 -112 41.5z" />
    <glyph glyph-name="gbreve" unicode="&#x11f;" horiz-adv-x="600" 
d="M590 -67q0 -64 -40 -109t-104.5 -67.5t-137.5 -22.5q-75 0 -137 25t-98.5 71.5t-36.5 106.5q0 25 8 57h101q-17 -35 -17 -75q0 -46 23 -85t64.5 -62t94.5 -23q48 0 89.5 18t67.5 54t26 86q0 57 -30.5 87.5t-72.5 41t-106 16.5q-64 7 -93.5 17t-29.5 39q0 18 13.5 30.5
t38.5 19.5q-87 19 -138 73t-51 140q0 72 36 122.5t99.5 76t144.5 25.5h8q39 51 91.5 75t104.5 24q54 0 91 -21l-13 -74q-16 17 -53 30.5t-78 13.5q-74 0 -123 -49q113 -6 181.5 -64t68.5 -159q0 -107 -77 -164.5t-201 -57.5h-20q-40 -2 -64 -14t-24 -26q0 -13 17 -17.5
t52 -4.5l77 1q248 0 248 -155zM145 263q25 -47 67 -72.5t92 -25.5t91.5 25.5t66.5 72.5t25 108q0 59 -25 106t-67 74t-91 27q-50 0 -92 -27t-67 -74t-25 -106q0 -61 25 -108zM160 740.5q-35 41.5 -40 95.5h17q23 -72 135 -72q109 0 135 72h16q-6 -55 -41 -96t-110 -41
q-77 0 -112 41.5z" />
    <glyph glyph-name="Gdotaccent" unicode="&#x120;" horiz-adv-x="701" 
d="M221 25.5q-87 37.5 -138.5 119.5t-51.5 208q0 193 118 283t305 90q104 0 207 -24v-129q-63 60 -132 91.5t-133 31.5q-77 0 -136.5 -38.5t-94 -117t-34.5 -192.5q0 -102 40.5 -177t109.5 -114.5t151 -39.5q75 0 139 33v124q0 65 -8.5 106.5t-35.5 86.5h136v-336
q-129 -43 -245 -43q-110 0 -197 37.5zM313.5 840.5q-15.5 15.5 -15.5 38.5t15 38.5t38 15.5t38.5 -15.5t15.5 -38.5t-15.5 -38.5t-38.5 -15.5q-22 0 -37.5 15.5z" />
    <glyph glyph-name="gdotaccent" unicode="&#x121;" horiz-adv-x="600" 
d="M590 -67q0 -64 -40 -109t-104.5 -67.5t-137.5 -22.5q-75 0 -137 25t-98.5 71.5t-36.5 106.5q0 25 8 57h101q-17 -35 -17 -75q0 -46 23 -85t64.5 -62t94.5 -23q48 0 89.5 18t67.5 54t26 86q0 57 -30.5 87.5t-72.5 41t-106 16.5q-64 7 -93.5 17t-29.5 39q0 18 13.5 30.5
t38.5 19.5q-87 19 -138 73t-51 140q0 72 36 122.5t99.5 76t144.5 25.5h8q39 51 91.5 75t104.5 24q54 0 91 -21l-13 -74q-16 17 -53 30.5t-78 13.5q-74 0 -123 -49q113 -6 181.5 -64t68.5 -159q0 -107 -77 -164.5t-201 -57.5h-20q-40 -2 -64 -14t-24 -26q0 -13 17 -17.5
t52 -4.5l77 1q248 0 248 -155zM145 263q25 -47 67 -72.5t92 -25.5t91.5 25.5t66.5 72.5t25 108q0 59 -25 106t-67 74t-91 27q-50 0 -92 -27t-67 -74t-25 -106q0 -61 25 -108zM234.5 716.5q-15.5 15.5 -15.5 38.5t15 38.5t38 15.5t38.5 -15.5t15.5 -38.5t-15.5 -38.5
t-38.5 -15.5q-22 0 -37.5 15.5z" />
    <glyph glyph-name="uni0122" unicode="&#x122;" horiz-adv-x="701" 
d="M221 25.5q-87 37.5 -138.5 119.5t-51.5 208q0 193 118 283t305 90q104 0 207 -24v-129q-63 60 -132 91.5t-133 31.5q-77 0 -136.5 -38.5t-94 -117t-34.5 -192.5q0 -102 40.5 -177t109.5 -114.5t151 -39.5q75 0 139 33v124q0 65 -8.5 106.5t-35.5 86.5h136v-336
q-129 -43 -245 -43q-110 0 -197 37.5zM367 -173l-78 -135l17 90l117 132z" />
    <glyph glyph-name="uni0123" unicode="&#x123;" horiz-adv-x="600" 
d="M590 -67q0 -64 -40 -109t-104.5 -67.5t-137.5 -22.5q-75 0 -137 25t-98.5 71.5t-36.5 106.5q0 25 8 57h101q-17 -35 -17 -75q0 -46 23 -85t64.5 -62t94.5 -23q48 0 89.5 18t67.5 54t26 86q0 57 -30.5 87.5t-72.5 41t-106 16.5q-64 7 -93.5 17t-29.5 39q0 18 13.5 30.5
t38.5 19.5q-87 19 -138 73t-51 140q0 72 36 122.5t99.5 76t144.5 25.5h8q39 51 91.5 75t104.5 24q54 0 91 -21l-13 -74q-16 17 -53 30.5t-78 13.5q-74 0 -123 -49q113 -6 181.5 -64t68.5 -159q0 -107 -77 -164.5t-201 -57.5h-20q-40 -2 -64 -14t-24 -26q0 -13 17 -17.5
t52 -4.5l77 1q248 0 248 -155zM145 263q25 -47 67 -72.5t92 -25.5t91.5 25.5t66.5 72.5t25 108q0 59 -25 106t-67 74t-91 27q-50 0 -92 -27t-67 -74t-25 -106q0 -61 25 -108zM207 668q-1 7 -1 22q0 60 33.5 113.5t99.5 89.5l4 -5q-67 -55 -67 -127q0 -41 23 -93h-92z" />
    <glyph glyph-name="Hbar" unicode="&#x126;" horiz-adv-x="623" 
d="M488 561v141h100v-702h-100v378h-352v-378h-100v702h100v-141h352zM136 540v-140h352v140h-352z" />
    <glyph glyph-name="hbar" unicode="&#x127;" horiz-adv-x="614" 
d="M521.5 558q42.5 -37 42.5 -112v-446h-100l3 442q1 60 -26.5 89.5t-73.5 29.5q-53 0 -114.5 -35.5t-101.5 -90.5v-435h-100v589h-68v21h68v92h100v-92h69v-21h-69v-124q47 58 120 94t140 36q68 0 110.5 -37z" />
    <glyph glyph-name="Imacron" unicode="&#x12a;" horiz-adv-x="171" 
d="M136 0h-100v702h100v-702zM188 852h-212v21h212v-21z" />
    <glyph glyph-name="imacron" unicode="&#x12b;" horiz-adv-x="192" 
d="M151 0h-100v578h100v-578zM202 728h-212v21h212v-21z" />
    <glyph glyph-name="Iogonek" unicode="&#x12e;" horiz-adv-x="171" 
d="M154 -4q-49 0 -77 -27t-28 -63q0 -33 24 -54t59 -21q7 0 19 2v-61q-31 -11 -55 -11q-58 0 -92 35.5t-34 84.5q0 38 23.5 71t67.5 48h-25v702h100v-692h18v-14z" />
    <glyph glyph-name="iogonek" unicode="&#x12f;" horiz-adv-x="192" 
d="M151 0h-100v578h100v-578zM61.5 716.5q-15.5 15.5 -15.5 38.5t15 38.5t38 15.5t38.5 -15.5t15.5 -38.5t-15.5 -38.5t-38.5 -15.5q-22 0 -37.5 15.5zM0 -213.5q-34 35.5 -34 84.5q0 33 17.5 62.5t53 48t86.5 18.5h27v-14q-49 0 -77 -27t-28 -63q0 -33 24 -54t59 -21
q7 0 19 2v-61q-31 -11 -55 -11q-58 0 -92 35.5z" />
    <glyph glyph-name="Idotaccent" unicode="&#x130;" horiz-adv-x="171" 
d="M136 0h-100v702h100v-702zM47.5 840.5q-15.5 15.5 -15.5 38.5t15 38.5t38 15.5t38.5 -15.5t15.5 -38.5t-15.5 -38.5t-38.5 -15.5q-22 0 -37.5 15.5z" />
    <glyph glyph-name="dotlessi" unicode="&#x131;" horiz-adv-x="192" 
d="M151 0h-100v578h100v-578z" />
    <glyph glyph-name="uni0136" unicode="&#x136;" horiz-adv-x="654" 
d="M36 0v702h100v-458l214 228q62 66 90 114t54 116h100l-196 -206l232 -496h-100l-200 424l-194 -204v-220h-100zM267 -174l-78 -135l17 90l117 132z" />
    <glyph glyph-name="uni0137" unicode="&#x137;" horiz-adv-x="526" 
d="M51 592q0 53 26.5 104.5t81 93.5t132.5 65v-62q-55 2 -84.5 -9t-42.5 -40t-13 -86v-356l101 87q39 33 86 91t66 98h96l-171 -147l210 -431h-100l-184 369l-104 -89v-280h-100v592zM256 -174l-78 -135l17 90l117 132z" />
    <glyph glyph-name="Lacute" unicode="&#x139;" horiz-adv-x="493" 
d="M36 0v702h100v-681h87q143 0 264 79v-100h-451zM465 972l-226 -194h-18l149 194h95z" />
    <glyph glyph-name="lacute" unicode="&#x13a;" horiz-adv-x="213" 
d="M163 0h-100v676q0 51 -13.5 78.5t-42.5 38.5t-80 11v59q116 -38 176 -113t60 -158v-592zM293 998l-226 -194h-18l149 194h95z" />
    <glyph glyph-name="uni013B" unicode="&#x13b;" horiz-adv-x="493" 
d="M36 0v702h100v-681h87q143 0 264 79v-100h-451zM211 -174l-78 -135l17 90l117 132z" />
    <glyph glyph-name="uni013C" unicode="&#x13c;" horiz-adv-x="213" 
d="M163 0h-100v676q0 51 -13.5 78.5t-42.5 38.5t-80 11v59q116 -38 176 -113t60 -158v-592zM62 -174l-78 -135l17 90l117 132z" />
    <glyph glyph-name="Lcaron" unicode="&#x13d;" horiz-adv-x="621" 
d="M36 0v702h100v-681h87q143 0 264 79v-100h-451zM420 580h-21v211h80z" />
    <glyph glyph-name="lcaron" unicode="&#x13e;" horiz-adv-x="351" 
d="M163 0h-100v676q0 51 -13.5 78.5t-42.5 38.5t-80 11v59q116 -38 176 -113t60 -158v-592zM243 596h-21v211h80z" />
    <glyph glyph-name="Lslash" unicode="&#x141;" horiz-adv-x="493" 
d="M223 21q143 0 264 79v-100h-451v313l-63 -25v22l63 24v368h100v-329l85 33v-21l-85 -33v-331h87z" />
    <glyph glyph-name="lslash" unicode="&#x142;" horiz-adv-x="213" 
d="M216 435v-21l-53 -21v-393h-100v354l-95 -37v22l95 37v300q0 51 -13.5 78.5t-42.5 38.5t-80 11v59q116 -38 176 -113t60 -158v-178z" />
    <glyph glyph-name="Nacute" unicode="&#x143;" horiz-adv-x="605" 
d="M69 0h-21v664l-24 38h118l409 -643v643h21v-702h-98l-405 629v-629zM521 972l-226 -194h-18l149 194h95z" />
    <glyph glyph-name="nacute" unicode="&#x144;" horiz-adv-x="619" 
d="M486.5 576.5q35.5 -15.5 58.5 -48.5t23 -82v-446h-100v421q0 60 -33 90.5t-78 30.5q-50 0 -107.5 -39t-98.5 -98v-405h-100v578h100v-141q46 66 120 110.5t142 44.5q38 0 73.5 -15.5zM532 848l-226 -194h-18l149 194h95z" />
    <glyph glyph-name="uni0145" unicode="&#x145;" horiz-adv-x="605" 
d="M69 0h-21v664l-24 38h118l409 -643v643h21v-702h-98l-405 629v-629zM267 -174l-78 -135l17 90l117 132z" />
    <glyph glyph-name="uni0146" unicode="&#x146;" horiz-adv-x="619" 
d="M486.5 576.5q35.5 -15.5 58.5 -48.5t23 -82v-446h-100v421q0 60 -33 90.5t-78 30.5q-50 0 -107.5 -39t-98.5 -98v-405h-100v578h100v-141q46 66 120 110.5t142 44.5q38 0 73.5 -15.5zM278 -174l-78 -135l17 90l117 132z" />
    <glyph glyph-name="Ncaron" unicode="&#x147;" horiz-adv-x="605" 
d="M69 0h-21v664l-24 38h118l409 -643v643h21v-702h-98l-405 629v-629zM300 810l89 162h88l-167 -182h-21l-160 182h87z" />
    <glyph glyph-name="ncaron" unicode="&#x148;" horiz-adv-x="619" 
d="M486.5 576.5q35.5 -15.5 58.5 -48.5t23 -82v-446h-100v421q0 60 -33 90.5t-78 30.5q-50 0 -107.5 -39t-98.5 -98v-405h-100v578h100v-141q46 66 120 110.5t142 44.5q38 0 73.5 -15.5zM312 686l89 162h88l-167 -182h-21l-160 182h87z" />
    <glyph glyph-name="Eng" unicode="&#x14a;" horiz-adv-x="605" 
d="M551 702h21v-702q0 -50 -9 -91.5t-45 -75t-109 -33.5v89q56 0 86 10t43 34t13 67h-77l-405 629v-629h-21v664l-24 38h118l409 -643v643z" />
    <glyph glyph-name="eng" unicode="&#x14b;" horiz-adv-x="619" 
d="M486.5 576.5q35.5 -15.5 58.5 -48.5t23 -82v-446q0 -45 -20 -87t-65.5 -70t-116.5 -28v25q48 3 70 26.5t27 54.5t5 79v421q0 60 -33 90.5t-78 30.5q-50 0 -107.5 -39t-98.5 -98v-405h-100v578h100v-141q46 66 120 110.5t142 44.5q38 0 73.5 -15.5z" />
    <glyph glyph-name="Omacron" unicode="&#x14c;" horiz-adv-x="715" 
d="M183 33q-74 49 -113 132t-39 182q0 90 36 175.5t109.5 140.5t181.5 55q107 0 181 -55t110 -140.5t36 -175.5q0 -99 -39 -182t-113 -132t-175 -49t-175 49zM488 57.5q51 52.5 74 131t23 158.5q0 78 -23.5 158.5t-74.5 136t-129 55.5q-84 0 -134.5 -55t-71.5 -134.5
t-21 -160.5q0 -79 24.5 -158t76 -131.5t126.5 -52.5q79 0 130 52.5zM460 852h-212v21h212v-21z" />
    <glyph glyph-name="omacron" unicode="&#x14d;" horiz-adv-x="607" 
d="M159.5 17.5q-63.5 34.5 -99.5 103t-36 166.5q0 99 36 168.5t99.5 104.5t144.5 35t144 -35t98.5 -104.5t35.5 -168.5q0 -98 -35.5 -166.5t-98.5 -103t-144 -34.5t-144.5 34.5zM395.5 40.5q41.5 35.5 66.5 99.5t25 147q0 81 -25 146t-67 102t-91 37q-50 0 -92 -37t-67 -102
t-25 -146q0 -83 25 -147t67 -99.5t92 -35.5t91.5 35.5zM406 728h-212v21h212v-21z" />
    <glyph glyph-name="Ohungarumlaut" unicode="&#x150;" horiz-adv-x="715" 
d="M183 33q-74 49 -113 132t-39 182q0 90 36 175.5t109.5 140.5t181.5 55q107 0 181 -55t110 -140.5t36 -175.5q0 -99 -39 -182t-113 -132t-175 -49t-175 49zM488 57.5q51 52.5 74 131t23 158.5q0 78 -23.5 158.5t-74.5 136t-129 55.5q-84 0 -134.5 -55t-71.5 -134.5
t-21 -160.5q0 -79 24.5 -158t76 -131.5t126.5 -52.5q79 0 130 52.5zM466 972l-225 -194h-18l148 194h95zM596 971l-225 -195h-18l148 195h95z" />
    <glyph glyph-name="ohungarumlaut" unicode="&#x151;" horiz-adv-x="607" 
d="M159.5 17.5q-63.5 34.5 -99.5 103t-36 166.5q0 99 36 168.5t99.5 104.5t144.5 35t144 -35t98.5 -104.5t35.5 -168.5q0 -98 -35.5 -166.5t-98.5 -103t-144 -34.5t-144.5 34.5zM395.5 40.5q41.5 35.5 66.5 99.5t25 147q0 81 -25 146t-67 102t-91 37q-50 0 -92 -37t-67 -102
t-25 -146q0 -83 25 -147t67 -99.5t92 -35.5t91.5 35.5zM412 848l-225 -194h-18l148 194h95zM542 847l-225 -195h-18l148 195h95z" />
    <glyph glyph-name="OE" unicode="&#x152;" horiz-adv-x="963" 
d="M413 0q-128 0 -213.5 46t-127 124.5t-41.5 176.5q0 88 42 169.5t128.5 133.5t211.5 52h511v-100q-76 45 -146 61.5t-147 17.5h-118v-275h352v-22h-352v-363h116q93 1 178.5 21t131.5 58v-100h-526zM413 680q-157 -6 -219.5 -104.5t-62.5 -228.5q0 -77 27.5 -148.5
t91 -120.5t163.5 -55v657z" />
    <glyph glyph-name="oe" unicode="&#x153;" horiz-adv-x="1082" 
d="M633.5 127.5q34.5 -57.5 88.5 -88t120 -30.5q105 0 207 76v-85q-90 -22 -176 -22q-106 0 -192.5 34.5t-135.5 105.5q-35 -66 -97.5 -100.5t-143.5 -34.5t-144.5 34.5t-99.5 103t-36 166.5q0 99 36 168.5t99.5 104.5t144.5 35q77 0 138 -32t96 -93q41 61 112.5 92.5
t162.5 31.5q77 0 130.5 -22.5t80 -61t26.5 -84.5q0 -52 -38.5 -93t-108 -64t-158.5 -23q-74 0 -153 16q7 -77 41.5 -134.5zM395.5 40.5q41.5 35.5 66.5 99.5t25 147q0 81 -25 146t-67 102t-91 37q-50 0 -92 -37t-67 -102t-25 -146q0 -83 25 -147t67 -99.5t92 -35.5
t91.5 35.5zM693 534q-50 -38 -76.5 -101t-26.5 -134v-19q64 -8 112 -8q121 0 188 44t67 121q0 55 -34 95t-114 40q-66 0 -116 -38z" />
    <glyph glyph-name="Racute" unicode="&#x154;" horiz-adv-x="603" 
d="M36 0v702h307q66 0 112 -27.5t69.5 -72.5t23.5 -96q0 -47 -20 -90.5t-60 -72.5t-97 -36l198 -307h-114l-181 300h-138v-300h-100zM285 322q54 0 92 26t57.5 67.5t19.5 88.5q0 46 -19 86.5t-56 65.5t-90 25h-153v-359h149zM513 972l-226 -194h-18l149 194h95z" />
    <glyph glyph-name="racute" unicode="&#x155;" horiz-adv-x="493" 
d="M51 0v578h100v-177q92 194 240 194q40 0 91 -17v-100q-79 45 -146 45q-58 0 -104.5 -41.5t-80.5 -119.5v-362h-100zM465 848l-226 -194h-18l149 194h95z" />
    <glyph glyph-name="uni0156" unicode="&#x156;" horiz-adv-x="603" 
d="M36 0v702h307q66 0 112 -27.5t69.5 -72.5t23.5 -96q0 -47 -20 -90.5t-60 -72.5t-97 -36l198 -307h-114l-181 300h-138v-300h-100zM285 322q54 0 92 26t57.5 67.5t19.5 88.5q0 46 -19 86.5t-56 65.5t-90 25h-153v-359h149zM259 -174l-78 -135l17 90l117 132z" />
    <glyph glyph-name="uni0157" unicode="&#x157;" horiz-adv-x="493" 
d="M51 0v578h100v-177q92 194 240 194q40 0 91 -17v-100q-79 45 -146 45q-58 0 -104.5 -41.5t-80.5 -119.5v-362h-100zM69 -174l-78 -135l17 90l117 132z" />
    <glyph glyph-name="Rcaron" unicode="&#x158;" horiz-adv-x="603" 
d="M36 0v702h307q66 0 112 -27.5t69.5 -72.5t23.5 -96q0 -47 -20 -90.5t-60 -72.5t-97 -36l198 -307h-114l-181 300h-138v-300h-100zM285 322q54 0 92 26t57.5 67.5t19.5 88.5q0 46 -19 86.5t-56 65.5t-90 25h-153v-359h149zM292 810l89 162h88l-167 -182h-21l-160 182h87z
" />
    <glyph glyph-name="rcaron" unicode="&#x159;" horiz-adv-x="493" 
d="M51 0v578h100v-177q92 194 240 194q40 0 91 -17v-100q-79 45 -146 45q-58 0 -104.5 -41.5t-80.5 -119.5v-362h-100zM244 686l89 162h88l-167 -182h-21l-160 182h87z" />
    <glyph glyph-name="Sacute" unicode="&#x15a;" horiz-adv-x="600" 
d="M30 2v100q57 -39 136.5 -65t146.5 -26q82 0 135 31t53 94q0 48 -33 85.5t-80 65t-128 65.5q-78 36 -125 63t-79 63t-32 82q0 85 81 122.5t211 37.5q101 0 226 -22v-100q-58 44 -139.5 71t-151.5 27q-67 0 -107.5 -22t-40.5 -70q0 -35 27.5 -63.5t69.5 -51t112 -54.5
q85 -39 137 -68t89.5 -71.5t40.5 -96.5q6 -116 -83.5 -165.5t-241.5 -49.5q-94 0 -224 18zM519 972l-226 -194h-18l149 194h95z" />
    <glyph glyph-name="sacute" unicode="&#x15b;" horiz-adv-x="535" 
d="M25 100q76 -43 150.5 -65t135.5 -22q63 0 100 24t37 69q0 34 -26.5 62t-65.5 49t-105 51q-72 32 -115.5 56t-73.5 57t-30 75q0 71 71 106t186 35q99 0 205 -23v-100q-51 41 -128 66.5t-145 25.5q-53 0 -85.5 -18t-32.5 -54q0 -26 22 -47.5t55 -38.5t93 -43
q79 -34 127 -60t82.5 -65.5t34.5 -92.5q0 -88 -78.5 -128.5t-200.5 -40.5q-99 0 -213 26v96zM482 848l-226 -194h-18l149 194h95z" />
    <glyph glyph-name="Scedilla" unicode="&#x15e;" horiz-adv-x="600" 
d="M507.5 41q-77.5 -50 -212.5 -56l-10 -34h45q36 0 57.5 -17t21.5 -49q0 -66 -54 -96t-133 -30q-20 0 -30 1v10q68 -1 113 26t45 81q0 28 -12 44t-35 16h-45l15 47h-19q-94 0 -224 18v100q57 -39 136.5 -65t146.5 -26q82 0 135 31t53 94q0 48 -33 85.5t-80 65t-128 65.5
q-78 36 -125 63t-79 63t-32 82q0 85 81 122.5t211 37.5q101 0 226 -22v-100q-58 44 -139.5 71t-151.5 27q-67 0 -107.5 -22t-40.5 -70q0 -35 27.5 -63.5t69.5 -51t112 -54.5q85 -39 137 -68t89.5 -71.5t40.5 -96.5q6 -108 -71.5 -158z" />
    <glyph glyph-name="scedilla" unicode="&#x15f;" horiz-adv-x="535" 
d="M442 20.5q-75 -40.5 -193 -42.5l-11 -35h45q36 0 57.5 -17t21.5 -49q0 -66 -54 -96t-133 -30q-20 0 -30 1v10q68 -1 113 26t45 81q0 28 -12 44t-35 16h-45l16 49q-107 3 -202 26v96q76 -43 150.5 -65t135.5 -22q63 0 100 24t37 69q0 34 -26.5 62t-65.5 49t-105 51
q-72 32 -115.5 56t-73.5 57t-30 75q0 71 71 106t186 35q99 0 205 -23v-100q-51 41 -128 66.5t-145 25.5q-53 0 -85.5 -18t-32.5 -54q0 -26 22 -47.5t55 -38.5t93 -43q79 -34 127 -60t82.5 -65.5t34.5 -92.5q0 -86 -75 -126.5z" />
    <glyph glyph-name="Scaron" unicode="&#x160;" horiz-adv-x="600" 
d="M30 2v100q57 -39 136.5 -65t146.5 -26q82 0 135 31t53 94q0 48 -33 85.5t-80 65t-128 65.5q-78 36 -125 63t-79 63t-32 82q0 85 81 122.5t211 37.5q101 0 226 -22v-100q-58 44 -139.5 71t-151.5 27q-67 0 -107.5 -22t-40.5 -70q0 -35 27.5 -63.5t69.5 -51t112 -54.5
q85 -39 137 -68t89.5 -71.5t40.5 -96.5q6 -116 -83.5 -165.5t-241.5 -49.5q-94 0 -224 18zM298 810l89 162h88l-167 -182h-21l-160 182h87z" />
    <glyph glyph-name="scaron" unicode="&#x161;" horiz-adv-x="535" 
d="M25 100q76 -43 150.5 -65t135.5 -22q63 0 100 24t37 69q0 34 -26.5 62t-65.5 49t-105 51q-72 32 -115.5 56t-73.5 57t-30 75q0 71 71 106t186 35q99 0 205 -23v-100q-51 41 -128 66.5t-145 25.5q-53 0 -85.5 -18t-32.5 -54q0 -26 22 -47.5t55 -38.5t93 -43
q79 -34 127 -60t82.5 -65.5t34.5 -92.5q0 -88 -78.5 -128.5t-200.5 -40.5q-99 0 -213 26v96zM261 686l89 162h88l-167 -182h-21l-160 182h87z" />
    <glyph glyph-name="uni0162" unicode="&#x162;" horiz-adv-x="574" 
d="M232 0v681h-48q-34 0 -93 -22t-108 -57v100h598v-100q-37 38 -88.5 58.5t-113.5 20.5h-47v-681h-100zM179 -230q68 -1 113 26t45 81q0 28 -12 44t-35 16h-45l20 63h22l-15 -49h45q36 0 57.5 -17t21.5 -49q0 -66 -54 -96t-133 -30q-20 0 -30 1v10z" />
    <glyph glyph-name="uni0163" unicode="&#x163;" horiz-adv-x="442" 
d="M202 -9l-12 -40h45q36 0 57.5 -17t21.5 -49q0 -66 -54 -96t-133 -30q-20 0 -30 1v10q68 -1 113 26t45 81q0 28 -12 44t-35 16h-45l19 60q-54 21 -85 67t-31 113v335q0 27 -12.5 37.5t-47.5 13.5v15q74 0 108.5 59.5t34.5 164.5h16l1 -224h140v-21h-140v-446q0 -48 26 -77
t71 -29q27 0 57 19.5t56.5 58t41.5 91.5l47 -55q-12 -42 -44 -73t-73.5 -47t-81.5 -16q-32 0 -64 8z" />
    <glyph glyph-name="Tcaron" unicode="&#x164;" horiz-adv-x="574" 
d="M232 0v681h-48q-34 0 -93 -22t-108 -57v100h598v-100q-37 38 -88.5 58.5t-113.5 20.5h-47v-681h-100zM285 810l89 162h88l-167 -182h-21l-160 182h87z" />
    <glyph glyph-name="tcaron" unicode="&#x165;" horiz-adv-x="557" 
d="M121.5 35q-55.5 52 -55.5 142v335q0 27 -12.5 37.5t-47.5 13.5v15q74 0 108.5 59.5t34.5 164.5h16l1 -224h140v-21h-140v-446q0 -48 26 -77t71 -29q27 0 57 19.5t56.5 58t41.5 91.5l47 -55q-12 -42 -44 -73t-73.5 -47t-81.5 -16q-89 0 -144.5 52zM408 580h-21v211h80z
" />
    <glyph glyph-name="Tbar" unicode="&#x166;" horiz-adv-x="574" 
d="M-17 702h598v-100q-37 38 -88.5 58.5t-113.5 20.5h-47v-320h74v-21h-74v-340h-100v340h-63v21h63v320h-48q-34 0 -93 -22t-108 -57v100z" />
    <glyph glyph-name="tbar" unicode="&#x167;" horiz-adv-x="442" 
d="M465 119q-12 -42 -44 -73t-73.5 -47t-81.5 -16q-89 0 -144.5 52t-55.5 142v101h-62v21h62v213q0 27 -12.5 37.5t-47.5 13.5v15q74 0 108.5 59.5t34.5 164.5h16l1 -224h140v-21h-140v-258h104v-21h-104v-167q0 -48 26 -77t71 -29q27 0 57 19.5t56.5 58t41.5 91.5z" />
    <glyph glyph-name="Umacron" unicode="&#x16a;" horiz-adv-x="631" 
d="M171 20q-63 35 -99 105t-36 170v407h101v-489q0 -108 51.5 -157.5t126.5 -49.5q74 0 124.5 49.5t50.5 157.5v489h100v-407q0 -101 -35.5 -170.5t-97.5 -104.5t-142 -35q-81 0 -144 35zM418 852h-212v21h212v-21z" />
    <glyph glyph-name="umacron" unicode="&#x16b;" horiz-adv-x="575" 
d="M436 578h100v-578h-100v85q-35 -45 -91.5 -72t-113.5 -27q-52 0 -95.5 23.5t-70 72t-26.5 121.5v375h100v-398q0 -85 33 -124.5t87 -39.5q45 0 95 26.5t82 65.5v470zM391 728h-212v21h212v-21z" />
    <glyph glyph-name="Uring" unicode="&#x16e;" horiz-adv-x="631" 
d="M171 20q-63 35 -99 105t-36 170v407h101v-489q0 -108 51.5 -157.5t126.5 -49.5q74 0 124.5 49.5t50.5 157.5v489h100v-407q0 -101 -35.5 -170.5t-97.5 -104.5t-142 -35q-81 0 -144 35zM251.5 814.5q-24.5 24.5 -24.5 59.5t24.5 59.5t59.5 24.5t59.5 -24.5t24.5 -59.5
t-24.5 -59.5t-59.5 -24.5t-59.5 24.5zM346 828q13 16 13 46t-13 46t-35 16t-35 -16t-13 -46t13 -46t35 -16t35 16z" />
    <glyph glyph-name="uring" unicode="&#x16f;" horiz-adv-x="575" 
d="M436 578h100v-578h-100v85q-35 -45 -91.5 -72t-113.5 -27q-52 0 -95.5 23.5t-70 72t-26.5 121.5v375h100v-398q0 -85 33 -124.5t87 -39.5q45 0 95 26.5t82 65.5v470zM223.5 690.5q-24.5 24.5 -24.5 59.5t24.5 59.5t59.5 24.5t59.5 -24.5t24.5 -59.5t-24.5 -59.5
t-59.5 -24.5t-59.5 24.5zM318 704q13 16 13 46t-13 46t-35 16t-35 -16t-13 -46t13 -46t35 -16t35 16z" />
    <glyph glyph-name="Uhungarumlaut" unicode="&#x170;" horiz-adv-x="631" 
d="M171 20q-63 35 -99 105t-36 170v407h101v-489q0 -108 51.5 -157.5t126.5 -49.5q74 0 124.5 49.5t50.5 157.5v489h100v-407q0 -101 -35.5 -170.5t-97.5 -104.5t-142 -35q-81 0 -144 35zM424 972l-225 -194h-18l148 194h95zM554 971l-225 -195h-18l148 195h95z" />
    <glyph glyph-name="uhungarumlaut" unicode="&#x171;" horiz-adv-x="575" 
d="M436 578h100v-578h-100v85q-35 -45 -91.5 -72t-113.5 -27q-52 0 -95.5 23.5t-70 72t-26.5 121.5v375h100v-398q0 -85 33 -124.5t87 -39.5q45 0 95 26.5t82 65.5v470zM396 848l-225 -194h-18l148 194h95zM526 847l-225 -195h-18l148 195h95z" />
    <glyph glyph-name="Uogonek" unicode="&#x172;" horiz-adv-x="631" 
d="M490 702h100v-407q0 -141 -68 -220.5t-180 -88.5q-30 -10 -46 -33t-16 -50q0 -33 24 -54t59 -21q7 0 19 2v-61q-31 -11 -55 -11q-58 0 -92 35.5t-34 84.5q0 33 17.5 63t51.5 47q-106 14 -170 93t-64 214v407h101v-489q0 -108 51.5 -157.5t126.5 -49.5q74 0 124.5 49.5
t50.5 157.5v489z" />
    <glyph glyph-name="uogonek" unicode="&#x173;" horiz-adv-x="575" 
d="M436 578h100v-592q-49 0 -77 -27t-28 -63q0 -33 24 -54t59 -21q7 0 19 2v-61q-31 -11 -55 -11q-58 0 -92 35.5t-34 84.5q0 33 17.5 62.5t53 48t86.5 18.5h-73v85q-35 -45 -91.5 -72t-113.5 -27q-52 0 -95.5 23.5t-70 72t-26.5 121.5v375h100v-398q0 -85 33 -124.5
t87 -39.5q45 0 95 26.5t82 65.5v470z" />
    <glyph glyph-name="Wcircumflex" unicode="&#x174;" horiz-adv-x="932" 
d="M321 0h-94l-246 702h100l232 -661l133 387l-91 274h100l231 -663l228 663h22l-241 -702h-96l-142 395zM464 972l167 -182h-88l-89 162l-84 -162h-87l160 182h21z" />
    <glyph glyph-name="wcircumflex" unicode="&#x175;" horiz-adv-x="917" 
d="M252 0h-49l-223 578h99l188 -482l184 482h42l196 -505l192 505h28l-224 -578h-68l-182 474zM463 848l167 -182h-88l-89 162l-84 -162h-87l160 182h21z" />
    <glyph glyph-name="Ycircumflex" unicode="&#x176;" horiz-adv-x="445" 
d="M154 0v310l-224 392h100l216 -371l66 107q43 70 57 121t19 109q2 22 4 34h100l-238 -392v-310h-100zM231 972l167 -182h-88l-89 162l-84 -162h-87l160 182h21z" />
    <glyph glyph-name="ycircumflex" unicode="&#x177;" horiz-adv-x="519" 
d="M-82 -96q128 -59 220 -59q66 0 101.5 27.5t35.5 68.5q0 21 -8 38l-270 599h100l235 -515l107 297q24 86 24 154q0 33 -4 64h80l-207 -578l-22.5 -67.5t-81 -98.5t-155.5 -40q-78 0 -180 27zM284 848l167 -182h-88l-89 162l-84 -162h-87l160 182h21z" />
    <glyph glyph-name="Ydieresis" unicode="&#x178;" horiz-adv-x="445" 
d="M154 0v310l-224 392h100l216 -371l66 107q43 70 57 121t19 109q2 22 4 34h100l-238 -392v-310h-100zM130.5 835.5q-10.5 10.5 -10.5 26.5t10.5 26.5t26.5 10.5q15 0 25.5 -10.5t10.5 -26.5t-10.5 -26.5t-25.5 -10.5q-16 0 -26.5 10.5zM263 835.5q-11 10.5 -11 26.5
t11 26.5t27 10.5q15 0 25.5 -10.5t10.5 -26.5t-10.5 -26.5t-25.5 -10.5q-16 0 -27 10.5z" />
    <glyph glyph-name="Zacute" unicode="&#x179;" horiz-adv-x="661" 
d="M15 0l492 681h-180q-81 0 -138.5 -15.5t-132.5 -46.5q-26 -12 -40 -17v100h612l-488 -681h232q92 0 158 21.5t118 56.5v-99h-633zM549 972l-226 -194h-18l149 194h95z" />
    <glyph glyph-name="zacute" unicode="&#x17a;" horiz-adv-x="529" 
d="M12 0l396 556h-89q-71 0 -160.5 -26t-127.5 -59v107h492l-395 -555h104q77 0 161.5 23.5t124.5 60.5v-107h-506zM480 848l-226 -194h-18l149 194h95z" />
    <glyph glyph-name="Zdotaccent" unicode="&#x17b;" horiz-adv-x="661" 
d="M15 0l492 681h-180q-81 0 -138.5 -15.5t-132.5 -46.5q-26 -12 -40 -17v100h612l-488 -681h232q92 0 158 21.5t118 56.5v-99h-633zM293.5 840.5q-15.5 15.5 -15.5 38.5t15 38.5t38 15.5t38.5 -15.5t15.5 -38.5t-15.5 -38.5t-38.5 -15.5q-22 0 -37.5 15.5z" />
    <glyph glyph-name="zdotaccent" unicode="&#x17c;" horiz-adv-x="529" 
d="M12 0l396 556h-89q-71 0 -160.5 -26t-127.5 -59v107h492l-395 -555h104q77 0 161.5 23.5t124.5 60.5v-107h-506zM223.5 716.5q-15.5 15.5 -15.5 38.5t15 38.5t38 15.5t38.5 -15.5t15.5 -38.5t-15.5 -38.5t-38.5 -15.5q-22 0 -37.5 15.5z" />
    <glyph glyph-name="Zcaron" unicode="&#x17d;" horiz-adv-x="661" 
d="M15 0l492 681h-180q-81 0 -138.5 -15.5t-132.5 -46.5q-26 -12 -40 -17v100h612l-488 -681h232q92 0 158 21.5t118 56.5v-99h-633zM329 810l89 162h88l-167 -182h-21l-160 182h87z" />
    <glyph glyph-name="zcaron" unicode="&#x17e;" horiz-adv-x="529" 
d="M12 0l396 556h-89q-71 0 -160.5 -26t-127.5 -59v107h492l-395 -555h104q77 0 161.5 23.5t124.5 60.5v-107h-506zM259 686l89 162h88l-167 -182h-21l-160 182h87z" />
    <glyph glyph-name="uni0218" unicode="&#x218;" horiz-adv-x="600" 
d="M30 2v100q57 -39 136.5 -65t146.5 -26q82 0 135 31t53 94q0 48 -33 85.5t-80 65t-128 65.5q-78 36 -125 63t-79 63t-32 82q0 85 81 122.5t211 37.5q101 0 226 -22v-100q-58 44 -139.5 71t-151.5 27q-67 0 -107.5 -22t-40.5 -70q0 -35 27.5 -63.5t69.5 -51t112 -54.5
q85 -39 137 -68t89.5 -71.5t40.5 -96.5q6 -116 -83.5 -165.5t-241.5 -49.5q-94 0 -224 18zM265 -174l-78 -135l17 90l117 132z" />
    <glyph glyph-name="uni0219" unicode="&#x219;" horiz-adv-x="535" 
d="M25 100q76 -43 150.5 -65t135.5 -22q63 0 100 24t37 69q0 34 -26.5 62t-65.5 49t-105 51q-72 32 -115.5 56t-73.5 57t-30 75q0 71 71 106t186 35q99 0 205 -23v-100q-51 41 -128 66.5t-145 25.5q-53 0 -85.5 -18t-32.5 -54q0 -26 22 -47.5t55 -38.5t93 -43
q79 -34 127 -60t82.5 -65.5t34.5 -92.5q0 -88 -78.5 -128.5t-200.5 -40.5q-99 0 -213 26v96zM218 -182l-78 -135l17 90l117 132z" />
    <glyph glyph-name="uni021A" unicode="&#x21a;" horiz-adv-x="574" 
d="M232 0v681h-48q-34 0 -93 -22t-108 -57v100h598v-100q-37 38 -88.5 58.5t-113.5 20.5h-47v-681h-100zM252 -174l-78 -135l17 90l117 132z" />
    <glyph glyph-name="uni021B" unicode="&#x21b;" horiz-adv-x="442" 
d="M121.5 35q-55.5 52 -55.5 142v335q0 27 -12.5 37.5t-47.5 13.5v15q74 0 108.5 59.5t34.5 164.5h16l1 -224h140v-21h-140v-446q0 -48 26 -77t71 -29q27 0 57 19.5t56.5 58t41.5 91.5l47 -55q-12 -42 -44 -73t-73.5 -47t-81.5 -16q-89 0 -144.5 52zM170 -174l-78 -135
l17 90l117 132z" />
    <glyph glyph-name="gravecomb" unicode="&#x300;" 
d="M-52 654h-18l-225 194h95z" />
    <glyph glyph-name="acutecomb" unicode="&#x301;" 
d="M84 848l-226 -194h-18l149 194h95z" />
    <glyph glyph-name="uni0302" unicode="&#x302;" 
d="M-199 848l167 -182h-88l-89 162l-84 -162h-87l160 182h21z" />
    <glyph glyph-name="tildecomb" unicode="&#x303;" 
d="M-171 714q-26 9 -67 26q-36 15 -56.5 22t-35.5 7q-40 0 -40 -47h-10q0 50 25 73.5t53 23.5q23 0 50 -9t67 -26q38 -15 57 -21.5t33 -6.5q16 0 23 9.5t7 33.5h11q0 -50 -19.5 -72t-50.5 -22q-21 0 -47 9z" />
    <glyph glyph-name="uni0304" unicode="&#x304;" 
d="M-96 728h-212v21h212v-21z" />
    <glyph glyph-name="uni0306" unicode="&#x306;" 
d="M-320 740.5q-35 41.5 -40 95.5h17q23 -72 135 -72q109 0 135 72h16q-6 -55 -41 -96t-110 -41q-77 0 -112 41.5z" />
    <glyph glyph-name="uni0307" unicode="&#x307;" 
d="M-124.5 716.5q-15.5 15.5 -15.5 38.5t15 38.5t38 15.5t38.5 -15.5t15.5 -38.5t-15.5 -38.5t-38.5 -15.5q-22 0 -37.5 15.5z" />
    <glyph glyph-name="uni0308" unicode="&#x308;" 
d="M-227.5 711.5q-10.5 10.5 -10.5 26.5t10.5 26.5t26.5 10.5q15 0 25.5 -10.5t10.5 -26.5t-10.5 -26.5t-25.5 -10.5q-16 0 -26.5 10.5zM-95 711.5q-11 10.5 -11 26.5t11 26.5t27 10.5q15 0 25.5 -10.5t10.5 -26.5t-10.5 -26.5t-25.5 -10.5q-16 0 -27 10.5z" />
    <glyph glyph-name="hookabovecomb" unicode="&#x309;" 
d="M-172 750q42 4 63 22t21 42q0 32 -24.5 47.5t-73.5 17.5v10q66 0 110 -13.5t44 -61.5q0 -31 -33 -55.5t-89 -24.5v-31h-18v47z" />
    <glyph glyph-name="uni030A" unicode="&#x30a;" 
d="M-188.5 690.5q-24.5 24.5 -24.5 59.5t24.5 59.5t59.5 24.5t59.5 -24.5t24.5 -59.5t-24.5 -59.5t-59.5 -24.5t-59.5 24.5zM-94 704q13 16 13 46t-13 46t-35 16t-35 -16t-13 -46t13 -46t35 -16t35 16z" />
    <glyph glyph-name="uni030B" unicode="&#x30b;" 
d="M-129 848l-225 -194h-18l148 194h95zM1 847l-225 -195h-18l148 195h95z" />
    <glyph glyph-name="uni030C" unicode="&#x30c;" 
d="M-209 686l89 162h88l-167 -182h-21l-160 182h87z" />
    <glyph glyph-name="uni0312" unicode="&#x312;" 
d="M-172 668q-1 7 -1 22q0 60 33.5 113.5t99.5 89.5l4 -5q-67 -55 -67 -127q0 -41 23 -93h-92z" />
    <glyph glyph-name="uni031B" unicode="&#x31b;" 
d="M-256 693q63 14 100.5 65t37.5 120v52h86q0 -95 -52 -164t-172 -94v21z" />
    <glyph glyph-name="dotbelowcomb" unicode="&#x323;" 
d="M-124.5 -182.5q-15.5 15.5 -15.5 38.5t15.5 38.5t37.5 15.5q23 0 38.5 -15.5t15.5 -38.5t-15.5 -38.5t-38.5 -15.5q-22 0 -37.5 15.5z" />
    <glyph glyph-name="uni0326" unicode="&#x326;" 
d="M-156 -174l-78 -135l17 90l117 132z" />
    <glyph glyph-name="uni0327" unicode="&#x327;" 
d="M-271 -230q68 -1 113 26t45 81q0 28 -12 44t-35 16h-45l20 63h22l-15 -49h45q36 0 57.5 -17t21.5 -49q0 -66 -54 -96t-133 -30q-20 0 -30 1v10z" />
    <glyph glyph-name="uni0328" unicode="&#x328;" 
d="M-183 -213.5q-34 35.5 -34 84.5q0 33 17.5 62.5t53 48t86.5 18.5h27v-14q-49 0 -77 -27t-28 -63q0 -33 24 -54t59 -21q7 0 19 2v-61q-31 -11 -55 -11q-58 0 -92 35.5z" />
    <glyph glyph-name="uni0335" unicode="&#x335;" 
d="M-25 320h-237v21h237v-21z" />
    <glyph glyph-name="uni0336" unicode="&#x336;" 
d="M-32 314h-422v21h422v-21z" />
    <glyph glyph-name="uni0337" unicode="&#x337;" 
d="M-21 416l-248 -97v22l248 96v-21z" />
    <glyph glyph-name="uni0338" unicode="&#x338;" 
d="M-291 -141h-21l259 910h21z" />
    <glyph glyph-name="Wgrave" unicode="&#x1e80;" horiz-adv-x="932" 
d="M321 0h-94l-246 702h100l232 -661l133 387l-91 274h100l231 -663l228 663h22l-241 -702h-96l-142 395zM562 778h-18l-225 194h95z" />
    <glyph glyph-name="wgrave" unicode="&#x1e81;" horiz-adv-x="917" 
d="M252 0h-49l-223 578h99l188 -482l184 482h42l196 -505l192 505h28l-224 -578h-68l-182 474zM561 654h-18l-225 194h95z" />
    <glyph glyph-name="Wacute" unicode="&#x1e82;" horiz-adv-x="932" 
d="M321 0h-94l-246 702h100l232 -661l133 387l-91 274h100l231 -663l228 663h22l-241 -702h-96l-142 395zM675 972l-226 -194h-18l149 194h95z" />
    <glyph glyph-name="wacute" unicode="&#x1e83;" horiz-adv-x="917" 
d="M252 0h-49l-223 578h99l188 -482l184 482h42l196 -505l192 505h28l-224 -578h-68l-182 474zM674 848l-226 -194h-18l149 194h95z" />
    <glyph glyph-name="Wdieresis" unicode="&#x1e84;" horiz-adv-x="932" 
d="M321 0h-94l-246 702h100l232 -661l133 387l-91 274h100l231 -663l228 663h22l-241 -702h-96l-142 395zM364.5 835.5q-10.5 10.5 -10.5 26.5t10.5 26.5t26.5 10.5q15 0 25.5 -10.5t10.5 -26.5t-10.5 -26.5t-25.5 -10.5q-16 0 -26.5 10.5zM497 835.5q-11 10.5 -11 26.5
t11 26.5t27 10.5q15 0 25.5 -10.5t10.5 -26.5t-10.5 -26.5t-25.5 -10.5q-16 0 -27 10.5z" />
    <glyph glyph-name="wdieresis" unicode="&#x1e85;" horiz-adv-x="917" 
d="M252 0h-49l-223 578h99l188 -482l184 482h42l196 -505l192 505h28l-224 -578h-68l-182 474zM363.5 711.5q-10.5 10.5 -10.5 26.5t10.5 26.5t26.5 10.5q15 0 25.5 -10.5t10.5 -26.5t-10.5 -26.5t-25.5 -10.5q-16 0 -26.5 10.5zM496 711.5q-11 10.5 -11 26.5t11 26.5
t27 10.5q15 0 25.5 -10.5t10.5 -26.5t-10.5 -26.5t-25.5 -10.5q-16 0 -27 10.5z" />
    <glyph glyph-name="uni1E9E" unicode="&#x1e9e;" horiz-adv-x="631" 
d="M314.5 19.5q-51.5 33.5 -76.5 97.5l16 8q30 -51 69 -77t78 -26q55 0 92 39t37 97q0 43 -26.5 90.5t-79 90.5t-124.5 74l167 285h-152q-193 0 -193 -188v-507h-100v469q0 94 31 148t92 76t158 22h204l-136 -235q128 -57 190.5 -138.5t62.5 -164.5q0 -57 -26 -101.5
t-71 -68.5t-101 -24q-60 0 -111.5 33.5z" />
    <glyph glyph-name="Ygrave" unicode="&#x1ef2;" horiz-adv-x="445" 
d="M154 0v310l-224 392h100l216 -371l66 107q43 70 57 121t19 109q2 22 4 34h100l-238 -392v-310h-100zM328 778h-18l-225 194h95z" />
    <glyph glyph-name="ygrave" unicode="&#x1ef3;" horiz-adv-x="519" 
d="M-82 -96q128 -59 220 -59q66 0 101.5 27.5t35.5 68.5q0 21 -8 38l-270 599h100l235 -515l107 297q24 86 24 154q0 33 -4 64h80l-207 -578l-22.5 -67.5t-81 -98.5t-155.5 -40q-78 0 -180 27zM382 654h-18l-225 194h95z" />
    <glyph glyph-name="endash" unicode="&#x2013;" horiz-adv-x="445" 
d="M413 292h-380v22h380v-22z" />
    <glyph glyph-name="emdash" unicode="&#x2014;" horiz-adv-x="519" 
d="M487 292h-454v22h454v-22z" />
    <glyph glyph-name="quoteleft" unicode="&#x2018;" horiz-adv-x="201" 
d="M148 789h21l-56 -211h-80z" />
    <glyph glyph-name="quoteright" unicode="&#x2019;" horiz-adv-x="198" 
d="M51 578h-21l56 211h80z" />
    <glyph glyph-name="quotesinglbase" unicode="&#x201a;" horiz-adv-x="201" 
d="M54 -129h-21l56 211h80z" />
    <glyph glyph-name="quotedblleft" unicode="&#x201c;" horiz-adv-x="305" 
d="M148 771h21l-56 -211h-80zM251 771h22l-57 -211h-80z" />
    <glyph glyph-name="quotedblright" unicode="&#x201d;" horiz-adv-x="312" 
d="M151 789h21l-56 -211h-80zM258 789h21l-56 -211h-80z" />
    <glyph glyph-name="quotedblbase" unicode="&#x201e;" horiz-adv-x="299" 
d="M54 -129h-21l56 211h80zM152 -129h-21l56 211h80z" />
    <glyph glyph-name="dagger" unicode="&#x2020;" horiz-adv-x="467" 
d="M222 150q0 114 -8 176.5t-31 143.5q21 26 28.5 47t8.5 56q-17 -1 -30 -6t-33 -15q-19 -10 -33.5 -15t-33.5 -5q-27 0 -42 16t-15 39t15 39.5t42 16.5q19 0 33 -6.5t33 -19.5q21 -13 34 -19t30 -7q-1 24 -6.5 41.5t-17.5 40.5q-11 19 -16 34t-5 34q0 30 17 46.5t41 16.5
t40.5 -16.5t16.5 -46.5q0 -19 -5 -34.5t-16 -35.5q-11 -21 -17 -38.5t-7 -41.5q19 0 32.5 6.5t34.5 19.5q19 13 33.5 19.5t32.5 6.5q27 0 42 -16.5t15 -39.5t-15 -39t-42 -16q-18 0 -33.5 5.5t-32.5 15.5q-21 10 -34.5 15t-32.5 5q1 -35 8.5 -56t29.5 -47q-24 -81 -32 -143
t-8 -177h-21z" />
    <glyph glyph-name="daggerdbl" unicode="&#x2021;" horiz-adv-x="467" 
d="M223 150q0 52 -11.5 103t-36.5 79q13 21 19 45t10 63q-16 -3 -30.5 -11t-17.5 -9q-23 -11 -35.5 -16t-30.5 -5q-27 0 -42 16.5t-15 39.5q0 22 15 38.5t42 16.5q18 0 31.5 -6.5t34.5 -19.5q28 -20 47 -24q14 51 16 114q-17 0 -29 -5t-34 -16q-20 -11 -34 -16t-32 -5
q-27 0 -42 16t-15 39t15 39.5t42 16.5q18 0 33 -7t33 -20q20 -13 33 -19.5t30 -6.5q-1 24 -6.5 41t-17.5 40q-10 22 -15 36.5t-5 33.5q0 30 17.5 47t40.5 17q24 0 40.5 -16.5t16.5 -47.5q0 -19 -5.5 -34.5t-16.5 -36.5q-12 -23 -17.5 -40t-6.5 -40q18 0 32 6.5t35 20.5
q19 13 33.5 19.5t33.5 6.5q27 0 42 -16.5t15 -39.5t-15 -39t-42 -16q-18 0 -31.5 5t-35.5 16q-19 11 -33.5 16t-33.5 5q4 -68 17 -115q18 4 48 24q19 13 34 20t35 7q27 0 42 -16.5t15 -38.5q0 -23 -15 -39.5t-42 -16.5q-18 0 -31.5 5t-35.5 16q-30 17 -50 20q6 -67 32 -108
q-27 -28 -39.5 -79t-12.5 -103h-18z" />
    <glyph glyph-name="bullet" unicode="&#x2022;" horiz-adv-x="250" 
d="M33.5 179q-30.5 31 -30.5 77q0 45 30.5 76t76.5 31t77 -31t31 -76q0 -46 -31 -77t-77 -31t-76.5 31z" />
    <glyph glyph-name="ellipsis" unicode="&#x2026;" horiz-adv-x="521" 
d="M224.5 -1.5q-15.5 15.5 -15.5 38.5t15 38.5t38 15.5t38.5 -15.5t15.5 -38.5t-15.5 -38.5t-38.5 -15.5q-22 0 -37.5 15.5zM48.5 -1.5q-15.5 15.5 -15.5 38.5t15 38.5t38 15.5t38.5 -15.5t15.5 -38.5t-15.5 -38.5t-38.5 -15.5q-22 0 -37.5 15.5zM396.5 -1.5
q-15.5 15.5 -15.5 38.5t15 38.5t38 15.5t38.5 -15.5t15.5 -38.5t-15.5 -38.5t-38.5 -15.5q-22 0 -37.5 15.5z" />
    <glyph glyph-name="perthousand" unicode="&#x2030;" horiz-adv-x="1189" 
d="M199 -67h-22l414 835h22zM82 416.5q-38 52.5 -38 131.5q0 80 38 131.5t127 51.5t127 -51.5t38 -131.5q0 -79 -38.5 -131.5t-126.5 -52.5q-89 0 -127 52.5zM324 548q0 87 -29.5 127.5t-85.5 40.5t-85.5 -40.5t-29.5 -127.5q0 -173 115 -173t115 173zM464.5 30
q-38.5 53 -38.5 132q0 80 38 131.5t127 51.5t127 -51.5t38 -131.5q0 -79 -38 -132t-127 -53q-88 0 -126.5 53zM875.5 30q-38.5 53 -38.5 132q0 80 38 131.5t127 51.5t127 -51.5t38 -131.5q0 -79 -38 -132t-127 -53q-88 0 -126.5 53zM706 162q0 87 -29.5 127.5t-85.5 40.5
t-85.5 -40.5t-29.5 -127.5q0 -173 115 -173t115 173zM1117 162q0 87 -29.5 127.5t-85.5 40.5t-85.5 -40.5t-29.5 -127.5q0 -173 115 -173t115 173z" />
    <glyph glyph-name="guilsinglleft" unicode="&#x2039;" horiz-adv-x="395" 
d="M33 324l330 216v-21l-299 -197l299 -201v-21l-330 220v4z" />
    <glyph glyph-name="guilsinglright" unicode="&#x203a;" horiz-adv-x="395" 
d="M33 519v21l330 -216v-4l-330 -220v21l299 201z" />
    <glyph glyph-name="fraction" unicode="&#x2044;" horiz-adv-x="500" 
d="M54 0h-21l414 702h21z" />
    <glyph glyph-name="Euro" unicode="&#x20ac;" horiz-adv-x="732" 
d="M700 112q-41 -63 -110 -96t-150 -33q-72 0 -142.5 33.5t-122.5 99.5t-69 160h-73v21h70q-4 25 -4 61v18h-66v21h67q8 106 58.5 178t130 107.5t176.5 35.5q99 0 196 -37v-59q-109 59 -210 59q-109 0 -178.5 -72.5t-75.5 -211.5h203v-21h-203v-1q0 -36 5 -78h198v-21h-194
q21 -118 92 -188t184 -70q59 0 112.5 29.5t91.5 84.5z" />
    <glyph glyph-name="trademark" unicode="&#x2122;" horiz-adv-x="543" 
d="M104 456v239h-16q-12 0 -32.5 -8t-38.5 -20v35h210v-35q-28 28 -71 28h-17v-239h-35zM248 456h-6l-1 246h30l79 -229l75 229h30v-246h-35v208l-68 -208h-31l-73 212v-212z" />
    <glyph glyph-name="minus" unicode="&#x2212;" horiz-adv-x="432" 
d="M400 298h-367v21h367v-21z" />
    <glyph glyph-name="approxequal" unicode="&#x2248;" horiz-adv-x="546" 
d="M332.5 311q-41.5 19 -102.5 56q-47 29 -76 43t-51 14q-49 0 -49 -84h-21q0 49 16 84t42 53t56 18q26 0 58.5 -16t88.5 -49q52 -32 86 -48.5t60 -16.5q52 0 52 85h21q0 -70 -23.5 -114t-76.5 -44q-39 0 -80.5 19zM332.5 106q-41.5 19 -102.5 56q-47 29 -76 43t-51 14
q-49 0 -49 -84h-21q0 49 16 84t42 53t56 18q26 0 58.5 -16t88.5 -49q52 -32 86 -48.5t60 -16.5q52 0 52 85h21q0 -70 -23.5 -114t-76.5 -44q-39 0 -80.5 19z" />
    <glyph glyph-name="notequal" unicode="&#x2260;" horiz-adv-x="432" 
d="M400 368v-21h-158l-51 -80h209v-21h-222l-64 -100h-21l64 100h-124v21h137l51 80h-188v21h202l84 132h21l-84 -132h144z" />
    <glyph glyph-name="lessequal" unicode="&#x2264;" horiz-adv-x="397" 
d="M64 322l299 -201v-21l-330 220v4l330 216v-21zM33 53v21h331v-21h-331z" />
    <glyph glyph-name="greaterequal" unicode="&#x2265;" horiz-adv-x="397" 
d="M34 519v21l330 -216v-4l-330 -220v21l299 201zM364 53h-331v21h331v-21z" />
    <glyph glyph-name="lozenge" unicode="&#x25ca;" horiz-adv-x="571" 
d="M292 0h-10l-249 352l249 350h10l247 -350zM57 352l229 -321l228 321l-227 322z" />
    <glyph glyph-name="i.loclTRK" horiz-adv-x="192" 
d="M151 0h-100v578h100v-578zM61.5 716.5q-15.5 15.5 -15.5 38.5t15 38.5t38 15.5t38.5 -15.5t15.5 -38.5t-15.5 -38.5t-38.5 -15.5q-22 0 -37.5 15.5z" />
    <glyph glyph-name="l.001" horiz-adv-x="192" 
d="M51 593q0 104 69.5 176t170.5 105v-63q-55 2 -84.5 -8.5t-42.5 -39.5t-13 -86v-677h-100v593z" />
    <glyph glyph-name="q.001" horiz-adv-x="610" 
d="M738 -272q-132 28 -204 89t-72 173l-1 96q-45 -47 -100.5 -75t-110.5 -28q-64 0 -115.5 39.5t-81 109.5t-29.5 159q0 147 96 225t273 78q71 0 169 -16v-658q0 -64 17 -91t50 -27q21 0 46.5 8.5t62.5 24.5v-107zM379.5 45q43.5 23 81.5 67v454q-38 6 -73 6
q-117 0 -190.5 -66.5t-73.5 -214.5q0 -89 22.5 -149.5t61 -90t86.5 -29.5q42 0 85.5 23z" />
    </font>
</defs>
</svg>
